G04 ================== begin FILE IDENTIFICATION RECORD ==================*
G04 Layout Name:  MIZILOSCbrd15.brd*
G04 Film Name:    FAB*
G04 File Format:  Gerber RS274X*
G04 File Origin:  Cadence Allegro 17.2-S025*
G04 Origin Date:  Sat Dec 09 16:35:55 2023*
G04 *
G04 Layer:  MANUFACTURING/XSECTION_CHART*
G04 Layer:  MANUFACTURING/NCLEGEND-1-2*
G04 Layer:  MANUFACTURING/NCDRILL_LEGEND*
G04 Layer:  MANUFACTURING/NCDRILL_FIGURE*
G04 Layer:  BOARD GEOMETRY/OUTLINE*
G04 *
G04 Offset:    (0.0000 0.0000)*
G04 Mirror:    No*
G04 Mode:      Positive*
G04 Rotation:  0*
G04 FullContactRelief:  No*
G04 UndefLineWidth:     0.1000*
G04 ================== end FILE IDENTIFICATION RECORD ====================*
%FSLAX25Y25*MOIN*%
%IR0*IPPOS*OFA0.00000B0.00000*MIA0B0*SFA1.00000B1.00000*%
%AMMACRO10*
1,1,.003937,.025,0.0*
20,1,.003937,.025,0.0,.02462,-.004341,0.0*
1,1,.003937,.02462,-.004341*
20,1,.003937,.02462,-.004341,.023492,-.008551,0.0*
1,1,.003937,.023492,-.008551*
20,1,.003937,.023492,-.008551,.021651,-.0125,0.0*
1,1,.003937,.021651,-.0125*
20,1,.003937,.021651,-.0125,.019151,-.01607,0.0*
1,1,.003937,.019151,-.01607*
20,1,.003937,.019151,-.01607,.01607,-.019151,0.0*
1,1,.003937,.01607,-.019151*
20,1,.003937,.01607,-.019151,.0125,-.021651,0.0*
1,1,.003937,.0125,-.021651*
20,1,.003937,.0125,-.021651,.008551,-.023492,0.0*
1,1,.003937,.008551,-.023492*
20,1,.003937,.008551,-.023492,.004341,-.02462,0.0*
1,1,.003937,.004341,-.02462*
20,1,.003937,.004341,-.02462,0.0,-.025,0.0*
1,1,.003937,0.0,-.025*
20,1,.003937,0.0,-.025,-.004341,-.02462,0.0*
1,1,.003937,-.004341,-.02462*
20,1,.003937,-.004341,-.02462,-.008551,-.023492,0.0*
1,1,.003937,-.008551,-.023492*
20,1,.003937,-.008551,-.023492,-.0125,-.021651,0.0*
1,1,.003937,-.0125,-.021651*
20,1,.003937,-.0125,-.021651,-.01607,-.019151,0.0*
1,1,.003937,-.01607,-.019151*
20,1,.003937,-.01607,-.019151,-.019151,-.01607,0.0*
1,1,.003937,-.019151,-.01607*
20,1,.003937,-.019151,-.01607,-.021651,-.0125,0.0*
1,1,.003937,-.021651,-.0125*
20,1,.003937,-.021651,-.0125,-.023492,-.008551,0.0*
1,1,.003937,-.023492,-.008551*
20,1,.003937,-.023492,-.008551,-.02462,-.004341,0.0*
1,1,.003937,-.02462,-.004341*
20,1,.003937,-.02462,-.004341,-.025,0.0,0.0*
1,1,.003937,-.025,0.0*
20,1,.003937,-.025,0.0,-.02462,.004341,0.0*
1,1,.003937,-.02462,.004341*
20,1,.003937,-.02462,.004341,-.023492,.008551,0.0*
1,1,.003937,-.023492,.008551*
20,1,.003937,-.023492,.008551,-.021651,.0125,0.0*
1,1,.003937,-.021651,.0125*
20,1,.003937,-.021651,.0125,-.019151,.01607,0.0*
1,1,.003937,-.019151,.01607*
20,1,.003937,-.019151,.01607,-.01607,.019151,0.0*
1,1,.003937,-.01607,.019151*
20,1,.003937,-.01607,.019151,-.0125,.021651,0.0*
1,1,.003937,-.0125,.021651*
20,1,.003937,-.0125,.021651,-.008551,.023492,0.0*
1,1,.003937,-.008551,.023492*
20,1,.003937,-.008551,.023492,-.004341,.02462,0.0*
1,1,.003937,-.004341,.02462*
20,1,.003937,-.004341,.02462,0.0,.025,0.0*
1,1,.003937,0.0,.025*
20,1,.003937,0.0,.025,.004341,.02462,0.0*
1,1,.003937,.004341,.02462*
20,1,.003937,.004341,.02462,.008551,.023492,0.0*
1,1,.003937,.008551,.023492*
20,1,.003937,.008551,.023492,.0125,.021651,0.0*
1,1,.003937,.0125,.021651*
20,1,.003937,.0125,.021651,.01607,.019151,0.0*
1,1,.003937,.01607,.019151*
20,1,.003937,.01607,.019151,.019151,.01607,0.0*
1,1,.003937,.019151,.01607*
20,1,.003937,.019151,.01607,.021651,.0125,0.0*
1,1,.003937,.021651,.0125*
20,1,.003937,.021651,.0125,.023492,.008551,0.0*
1,1,.003937,.023492,.008551*
20,1,.003937,.023492,.008551,.02462,.004341,0.0*
1,1,.003937,.02462,.004341*
20,1,.003937,.02462,.004341,.025,0.0,0.0*
1,1,.003937,.025,0.0*
1,1,.003937,.0125,0.0*
20,1,.003937,.0125,0.0,-.0125,0.0,0.0*
1,1,.003937,-.0125,0.0*
1,1,.003937,0.0,.0125*
20,1,.003937,0.0,.0125,0.0,-.0125,0.0*
1,1,.003937,0.0,-.0125*
%
%ADD10MACRO10*%
%ADD11C,.003937*%
G75*
%LPD*%
G75*
G36*
G01X183386Y216468D02*
Y212058D01*
X185886D01*
Y19302D01*
X183386D01*
Y14893D01*
X198386D01*
Y19302D01*
X195886D01*
Y212058D01*
X198386D01*
Y216468D01*
X183386D01*
G37*
G36*
G01X163386Y14893D02*
Y19302D01*
X223386D01*
Y14893D01*
X163386D01*
G37*
G36*
G01Y212058D02*
Y216468D01*
X223386D01*
Y212058D01*
X163386D01*
G37*
G54D10*
X18043Y112205D03*
X29528Y120079D03*
Y110236D03*
X18043Y127953D03*
X41013Y-95965D03*
X41339Y35433D03*
X57087Y7874D03*
Y21654D03*
X41339Y62992D03*
Y55118D03*
X53150Y114173D03*
X76772Y25591D03*
X66929Y21654D03*
Y11811D03*
X72835Y87140D03*
X82677D03*
X70866Y114173D03*
X120079Y120079D03*
X131890Y25591D03*
G54D11*
G01X170286Y3530D02*
Y1030D01*
G01X169672Y3530D02*
X170899D01*
G01X172486Y1030D02*
X172272Y1072D01*
X172086Y1238D01*
X171926Y1488D01*
X171819Y1780D01*
X171766Y2113D01*
Y2446D01*
X171819Y2780D01*
X171926Y3072D01*
X172086Y3322D01*
X172272Y3488D01*
X172486Y3530D01*
X172699Y3488D01*
X172886Y3322D01*
X173046Y3072D01*
X173152Y2780D01*
X173206Y2446D01*
Y2113D01*
X173152Y1780D01*
X173046Y1488D01*
X172886Y1238D01*
X172699Y1072D01*
X172486Y1030D01*
G01X174686Y3530D02*
Y1030D01*
G01X174072Y3530D02*
X175299D01*
G01X176219Y1030D02*
X176886Y3530D01*
X177552Y1030D01*
G01X177313Y1905D02*
X176459D01*
G01X178552Y3530D02*
Y1030D01*
X179619D01*
G01X183486Y3530D02*
Y1030D01*
G01X182872Y3530D02*
X184099D01*
G01X185126Y1030D02*
Y3530D01*
G01X186246D02*
Y1030D01*
G01Y2280D02*
X185126D01*
G01X187566Y3530D02*
X188206D01*
G01X187886D02*
Y1030D01*
G01X187566D02*
X188206D01*
G01X190672Y3322D02*
X190513Y3446D01*
X190326Y3530D01*
X190113D01*
X189872Y3405D01*
X189686Y3196D01*
X189552Y2946D01*
X189446Y2530D01*
X189419Y2155D01*
X189472Y1780D01*
X189552Y1530D01*
X189713Y1280D01*
X189899Y1113D01*
X190086Y1030D01*
X190272D01*
X190459Y1113D01*
X190619Y1238D01*
X190752Y1405D01*
G01X191699Y1030D02*
Y3530D01*
G01X192713D02*
X191699Y1988D01*
G01X192872Y1030D02*
X192152Y2696D01*
G01X193872Y1030D02*
Y3530D01*
X195099Y1030D01*
Y3530D01*
G01X197219Y1030D02*
X196152D01*
Y3530D01*
X197219D01*
G01X196793Y2322D02*
X196152D01*
G01X198326Y1363D02*
X198539Y1155D01*
X198779Y1030D01*
X198993D01*
X199206Y1155D01*
X199366Y1363D01*
X199446Y1655D01*
X199393Y1946D01*
X199259Y2196D01*
X199019Y2363D01*
X198699Y2446D01*
X198513Y2613D01*
X198432Y2905D01*
X198486Y3196D01*
X198619Y3405D01*
X198806Y3530D01*
X198993D01*
X199179Y3446D01*
X199339Y3238D01*
G01X200526Y1363D02*
X200739Y1155D01*
X200979Y1030D01*
X201193D01*
X201406Y1155D01*
X201566Y1363D01*
X201646Y1655D01*
X201593Y1946D01*
X201459Y2196D01*
X201219Y2363D01*
X200899Y2446D01*
X200713Y2613D01*
X200632Y2905D01*
X200686Y3196D01*
X200819Y3405D01*
X201006Y3530D01*
X201193D01*
X201379Y3446D01*
X201539Y3238D01*
G01X205486Y1030D02*
Y3530D01*
X205166Y3030D01*
G01Y1030D02*
X205806D01*
G01X207686Y946D02*
X207633Y988D01*
Y1072D01*
X207686Y1113D01*
X207739Y1072D01*
Y988D01*
X207686Y946D01*
G01X209379Y2072D02*
X209566Y2363D01*
X209726Y2530D01*
X209939Y2613D01*
X210126Y2530D01*
X210259Y2363D01*
X210366Y2113D01*
X210393Y1822D01*
X210366Y1572D01*
X210259Y1322D01*
X210099Y1113D01*
X209913Y1030D01*
X209699Y1113D01*
X209513Y1363D01*
X209406Y1738D01*
X209379Y2155D01*
X209432Y2696D01*
X209513Y2988D01*
X209646Y3280D01*
X209833Y3488D01*
X210019Y3530D01*
X210206Y3446D01*
X210339Y3238D01*
G01X213593Y1030D02*
Y3530D01*
X214286Y1446D01*
X214979Y3530D01*
Y1030D01*
G01X215793D02*
Y3530D01*
X216486Y1446D01*
X217179Y3530D01*
Y1030D01*
G01X165299Y5530D02*
Y8030D01*
X165833D01*
X166046Y7905D01*
X166206Y7738D01*
X166339Y7488D01*
X166446Y7196D01*
X166472Y6780D01*
X166446Y6363D01*
X166339Y6072D01*
X166206Y5822D01*
X166046Y5655D01*
X165833Y5530D01*
X165299D01*
G01X168619D02*
X167552D01*
Y8030D01*
X168619D01*
G01X168193Y6822D02*
X167552D01*
G01X169726Y5863D02*
X169939Y5655D01*
X170179Y5530D01*
X170393D01*
X170606Y5655D01*
X170766Y5863D01*
X170846Y6155D01*
X170793Y6446D01*
X170659Y6696D01*
X170419Y6863D01*
X170099Y6946D01*
X169913Y7113D01*
X169832Y7405D01*
X169886Y7696D01*
X170019Y7905D01*
X170206Y8030D01*
X170393D01*
X170579Y7946D01*
X170739Y7738D01*
G01X172166Y8030D02*
X172806D01*
G01X172486D02*
Y5530D01*
G01X172166D02*
X172806D01*
G01X174846Y6780D02*
X175379D01*
Y6030D01*
X175219Y5780D01*
X175033Y5613D01*
X174766Y5530D01*
X174499Y5613D01*
X174313Y5780D01*
X174152Y6030D01*
X174046Y6322D01*
X173993Y6655D01*
Y6946D01*
X174046Y7196D01*
X174152Y7488D01*
X174313Y7738D01*
X174472Y7905D01*
X174686Y8030D01*
X174872D01*
X175086Y7946D01*
X175246Y7780D01*
G01X176272Y5530D02*
Y8030D01*
X177499Y5530D01*
Y8030D01*
G01X181872Y7822D02*
X181713Y7946D01*
X181526Y8030D01*
X181313D01*
X181072Y7905D01*
X180886Y7696D01*
X180752Y7446D01*
X180646Y7030D01*
X180619Y6655D01*
X180672Y6280D01*
X180752Y6030D01*
X180913Y5780D01*
X181099Y5613D01*
X181286Y5530D01*
X181472D01*
X181659Y5613D01*
X181819Y5738D01*
X181952Y5905D01*
G01X182952Y5530D02*
Y8030D01*
X183619D01*
X183833Y7905D01*
X183966Y7738D01*
X184019Y7405D01*
X183966Y7072D01*
X183806Y6863D01*
X183619Y6738D01*
X182952D01*
G01X183619D02*
X184019Y5530D01*
G01X185686D02*
X185472Y5572D01*
X185286Y5738D01*
X185126Y5988D01*
X185019Y6280D01*
X184966Y6613D01*
Y6946D01*
X185019Y7280D01*
X185126Y7572D01*
X185286Y7822D01*
X185472Y7988D01*
X185686Y8030D01*
X185899Y7988D01*
X186086Y7822D01*
X186246Y7572D01*
X186352Y7280D01*
X186406Y6946D01*
Y6613D01*
X186352Y6280D01*
X186246Y5988D01*
X186086Y5738D01*
X185899Y5572D01*
X185686Y5530D01*
G01X187326Y5863D02*
X187539Y5655D01*
X187779Y5530D01*
X187993D01*
X188206Y5655D01*
X188366Y5863D01*
X188446Y6155D01*
X188393Y6446D01*
X188259Y6696D01*
X188019Y6863D01*
X187699Y6946D01*
X187513Y7113D01*
X187432Y7405D01*
X187486Y7696D01*
X187619Y7905D01*
X187806Y8030D01*
X187993D01*
X188179Y7946D01*
X188339Y7738D01*
G01X189526Y5863D02*
X189739Y5655D01*
X189979Y5530D01*
X190193D01*
X190406Y5655D01*
X190566Y5863D01*
X190646Y6155D01*
X190593Y6446D01*
X190459Y6696D01*
X190219Y6863D01*
X189899Y6946D01*
X189713Y7113D01*
X189632Y7405D01*
X189686Y7696D01*
X189819Y7905D01*
X190006Y8030D01*
X190193D01*
X190379Y7946D01*
X190539Y7738D01*
G01X193926Y5863D02*
X194139Y5655D01*
X194379Y5530D01*
X194593D01*
X194806Y5655D01*
X194966Y5863D01*
X195046Y6155D01*
X194993Y6446D01*
X194859Y6696D01*
X194619Y6863D01*
X194299Y6946D01*
X194113Y7113D01*
X194032Y7405D01*
X194086Y7696D01*
X194219Y7905D01*
X194406Y8030D01*
X194593D01*
X194779Y7946D01*
X194939Y7738D01*
G01X197219Y5530D02*
X196152D01*
Y8030D01*
X197219D01*
G01X196793Y6822D02*
X196152D01*
G01X199472Y7822D02*
X199313Y7946D01*
X199126Y8030D01*
X198913D01*
X198672Y7905D01*
X198486Y7696D01*
X198352Y7446D01*
X198246Y7030D01*
X198219Y6655D01*
X198272Y6280D01*
X198352Y6030D01*
X198513Y5780D01*
X198699Y5613D01*
X198886Y5530D01*
X199072D01*
X199259Y5613D01*
X199419Y5738D01*
X199552Y5905D01*
G01X201086Y8030D02*
Y5530D01*
G01X200472Y8030D02*
X201699D01*
G01X202966D02*
X203606D01*
G01X203286D02*
Y5530D01*
G01X202966D02*
X203606D01*
G01X205486D02*
X205272Y5572D01*
X205086Y5738D01*
X204926Y5988D01*
X204819Y6280D01*
X204766Y6613D01*
Y6946D01*
X204819Y7280D01*
X204926Y7572D01*
X205086Y7822D01*
X205272Y7988D01*
X205486Y8030D01*
X205699Y7988D01*
X205886Y7822D01*
X206046Y7572D01*
X206152Y7280D01*
X206206Y6946D01*
Y6613D01*
X206152Y6280D01*
X206046Y5988D01*
X205886Y5738D01*
X205699Y5572D01*
X205486Y5530D01*
G01X207072D02*
Y8030D01*
X208299Y5530D01*
Y8030D01*
G01X212672Y7822D02*
X212513Y7946D01*
X212326Y8030D01*
X212113D01*
X211872Y7905D01*
X211686Y7696D01*
X211552Y7446D01*
X211446Y7030D01*
X211419Y6655D01*
X211472Y6280D01*
X211552Y6030D01*
X211713Y5780D01*
X211899Y5613D01*
X212086Y5530D01*
X212272D01*
X212459Y5613D01*
X212619Y5738D01*
X212752Y5905D01*
G01X213726Y5530D02*
Y8030D01*
G01X214846D02*
Y5530D01*
G01Y6780D02*
X213726D01*
G01X215819Y5530D02*
X216486Y8030D01*
X217152Y5530D01*
G01X216913Y6405D02*
X216059D01*
G01X218152Y5530D02*
Y8030D01*
X218819D01*
X219033Y7905D01*
X219166Y7738D01*
X219219Y7405D01*
X219166Y7072D01*
X219006Y6863D01*
X218819Y6738D01*
X218152D01*
G01X218819D02*
X219219Y5530D01*
G01X220886Y8030D02*
Y5530D01*
G01X220272Y8030D02*
X221499D01*
G01X163986Y4696D02*
X165586D01*
G01X166186D02*
X167786D01*
G01X168386D02*
X169986D01*
G01X170586D02*
X172186D01*
G01X172786D02*
X174386D01*
G01X174986D02*
X176586D01*
G01X177186D02*
X178786D01*
G01X179386D02*
X180986D01*
G01X181586D02*
X183186D01*
G01X183786D02*
X185386D01*
G01X185986D02*
X187586D01*
G01X188186D02*
X189786D01*
G01X190386D02*
X191986D01*
G01X192586D02*
X194186D01*
G01X194786D02*
X196386D01*
G01X196986D02*
X198586D01*
G01X199186D02*
X200786D01*
G01X201386D02*
X202986D01*
G01X203586D02*
X205186D01*
G01X205786D02*
X207386D01*
G01X207986D02*
X209586D01*
G01X210186D02*
X211786D01*
G01X212386D02*
X213986D01*
G01X214586D02*
X216186D01*
G01X216786D02*
X218386D01*
G01X218986D02*
X220586D01*
G01X221186D02*
X222786D01*
G01X190886Y219768D02*
X188386D01*
X188886Y219448D01*
G01X190886D02*
Y220088D01*
G01X190052Y221621D02*
Y222315D01*
G01X188802Y223661D02*
X188552Y223821D01*
X188428Y224008D01*
X188386Y224221D01*
X188469Y224488D01*
X188678Y224674D01*
X188928Y224728D01*
X189178Y224701D01*
X189386Y224594D01*
X189802Y224061D01*
X190094Y223821D01*
X190511Y223661D01*
X190886Y223608D01*
Y224728D01*
G01X225852Y18469D02*
Y15969D01*
X226919D01*
G01X228079Y18053D02*
X228239Y18303D01*
X228426Y18428D01*
X228639Y18469D01*
X228906Y18386D01*
X229093Y18178D01*
X229146Y17928D01*
X229119Y17678D01*
X229013Y17469D01*
X228479Y17053D01*
X228239Y16761D01*
X228079Y16344D01*
X228026Y15969D01*
X229146D01*
G01X233199Y17303D02*
X233306Y17428D01*
X233386Y17636D01*
X233439Y17928D01*
X233386Y18178D01*
X233279Y18344D01*
X233093Y18469D01*
X232372D01*
Y15969D01*
X233252D01*
X233439Y16136D01*
X233546Y16386D01*
X233599Y16678D01*
X233546Y16969D01*
X233386Y17219D01*
X233199Y17303D01*
X232372D01*
G01X235186Y15969D02*
X234972Y16011D01*
X234786Y16178D01*
X234626Y16428D01*
X234519Y16719D01*
X234466Y17053D01*
Y17386D01*
X234519Y17719D01*
X234626Y18011D01*
X234786Y18261D01*
X234972Y18428D01*
X235186Y18469D01*
X235399Y18428D01*
X235586Y18261D01*
X235746Y18011D01*
X235852Y17719D01*
X235906Y17386D01*
Y17053D01*
X235852Y16719D01*
X235746Y16428D01*
X235586Y16178D01*
X235399Y16011D01*
X235186Y15969D01*
G01X237386Y18469D02*
Y15969D01*
G01X236772Y18469D02*
X237999D01*
G01X239586D02*
Y15969D01*
G01X238972Y18469D02*
X240199D01*
G01X241786Y15969D02*
X241572Y16011D01*
X241386Y16178D01*
X241226Y16428D01*
X241119Y16719D01*
X241066Y17053D01*
Y17386D01*
X241119Y17719D01*
X241226Y18011D01*
X241386Y18261D01*
X241572Y18428D01*
X241786Y18469D01*
X241999Y18428D01*
X242186Y18261D01*
X242346Y18011D01*
X242452Y17719D01*
X242506Y17386D01*
Y17053D01*
X242452Y16719D01*
X242346Y16428D01*
X242186Y16178D01*
X241999Y16011D01*
X241786Y15969D01*
G01X243293D02*
Y18469D01*
X243986Y16386D01*
X244679Y18469D01*
Y15969D01*
G01X248972Y18261D02*
X248813Y18386D01*
X248626Y18469D01*
X248413D01*
X248172Y18344D01*
X247986Y18136D01*
X247852Y17886D01*
X247746Y17469D01*
X247719Y17094D01*
X247772Y16719D01*
X247852Y16469D01*
X248013Y16219D01*
X248199Y16053D01*
X248386Y15969D01*
X248572D01*
X248759Y16053D01*
X248919Y16178D01*
X249052Y16344D01*
G01X250586Y15969D02*
X250372Y16011D01*
X250186Y16178D01*
X250026Y16428D01*
X249919Y16719D01*
X249866Y17053D01*
Y17386D01*
X249919Y17719D01*
X250026Y18011D01*
X250186Y18261D01*
X250372Y18428D01*
X250586Y18469D01*
X250799Y18428D01*
X250986Y18261D01*
X251146Y18011D01*
X251252Y17719D01*
X251306Y17386D01*
Y17053D01*
X251252Y16719D01*
X251146Y16428D01*
X250986Y16178D01*
X250799Y16011D01*
X250586Y15969D01*
G01X252172D02*
Y18469D01*
X253399Y15969D01*
Y18469D01*
G01X254399Y15969D02*
Y18469D01*
X254933D01*
X255146Y18344D01*
X255306Y18178D01*
X255439Y17928D01*
X255546Y17636D01*
X255572Y17219D01*
X255546Y16803D01*
X255439Y16511D01*
X255306Y16261D01*
X255146Y16094D01*
X254933Y15969D01*
X254399D01*
G01X256599Y18469D02*
Y16678D01*
X256706Y16302D01*
X256919Y16053D01*
X257186Y15969D01*
X257452Y16053D01*
X257666Y16302D01*
X257772Y16678D01*
Y18469D01*
G01X259972Y18261D02*
X259813Y18386D01*
X259626Y18469D01*
X259413D01*
X259172Y18344D01*
X258986Y18136D01*
X258852Y17886D01*
X258746Y17469D01*
X258719Y17094D01*
X258772Y16719D01*
X258852Y16469D01*
X259013Y16219D01*
X259199Y16053D01*
X259386Y15969D01*
X259572D01*
X259759Y16053D01*
X259919Y16178D01*
X260052Y16344D01*
G01X261586Y18469D02*
Y15969D01*
G01X260972Y18469D02*
X262199D01*
G01X263786Y15969D02*
X263572Y16011D01*
X263386Y16178D01*
X263226Y16428D01*
X263119Y16719D01*
X263066Y17053D01*
Y17386D01*
X263119Y17719D01*
X263226Y18011D01*
X263386Y18261D01*
X263572Y18428D01*
X263786Y18469D01*
X263999Y18428D01*
X264186Y18261D01*
X264346Y18011D01*
X264452Y17719D01*
X264506Y17386D01*
Y17053D01*
X264452Y16719D01*
X264346Y16428D01*
X264186Y16178D01*
X263999Y16011D01*
X263786Y15969D01*
G01X265452D02*
Y18469D01*
X266119D01*
X266333Y18344D01*
X266466Y18178D01*
X266519Y17844D01*
X266466Y17511D01*
X266306Y17303D01*
X266119Y17178D01*
X265452D01*
G01X266119D02*
X266519Y15969D01*
G01X270039Y16803D02*
X270733D01*
G01X275372Y18261D02*
X275213Y18386D01*
X275026Y18469D01*
X274813D01*
X274572Y18344D01*
X274386Y18136D01*
X274252Y17886D01*
X274146Y17469D01*
X274119Y17094D01*
X274172Y16719D01*
X274252Y16469D01*
X274413Y16219D01*
X274599Y16053D01*
X274786Y15969D01*
X274972D01*
X275159Y16053D01*
X275319Y16178D01*
X275452Y16344D01*
G01X276986Y15969D02*
X276772Y16011D01*
X276586Y16178D01*
X276426Y16428D01*
X276319Y16719D01*
X276266Y17053D01*
Y17386D01*
X276319Y17719D01*
X276426Y18011D01*
X276586Y18261D01*
X276772Y18428D01*
X276986Y18469D01*
X277199Y18428D01*
X277386Y18261D01*
X277546Y18011D01*
X277652Y17719D01*
X277706Y17386D01*
Y17053D01*
X277652Y16719D01*
X277546Y16428D01*
X277386Y16178D01*
X277199Y16011D01*
X276986Y15969D01*
G01X278652D02*
Y18469D01*
X279293D01*
X279506Y18344D01*
X279666Y18053D01*
X279719Y17719D01*
X279666Y17386D01*
X279533Y17136D01*
X279293Y17011D01*
X278652D01*
G01X280852Y15969D02*
Y18469D01*
X281493D01*
X281706Y18344D01*
X281866Y18053D01*
X281919Y17719D01*
X281866Y17386D01*
X281733Y17136D01*
X281493Y17011D01*
X280852D01*
G01X284119Y15969D02*
X283052D01*
Y18469D01*
X284119D01*
G01X283693Y17261D02*
X283052D01*
G01X285252Y15969D02*
Y18469D01*
X285919D01*
X286133Y18344D01*
X286266Y18178D01*
X286319Y17844D01*
X286266Y17511D01*
X286106Y17303D01*
X285919Y17178D01*
X285252D01*
G01X285919D02*
X286319Y15969D01*
G01X290186Y18469D02*
X289972Y18386D01*
X289813Y18178D01*
X289706Y17928D01*
X289626Y17594D01*
X289599Y17219D01*
X289626Y16844D01*
X289706Y16511D01*
X289813Y16261D01*
X289972Y16053D01*
X290186Y15969D01*
X290399Y16053D01*
X290559Y16261D01*
X290666Y16511D01*
X290746Y16844D01*
X290772Y17219D01*
X290746Y17594D01*
X290666Y17928D01*
X290559Y18178D01*
X290399Y18386D01*
X290186Y18469D01*
G01X292386Y15886D02*
X292333Y15928D01*
Y16011D01*
X292386Y16053D01*
X292439Y16011D01*
Y15928D01*
X292386Y15886D01*
G01X294586Y18469D02*
X294372Y18386D01*
X294213Y18178D01*
X294106Y17928D01*
X294026Y17594D01*
X293999Y17219D01*
X294026Y16844D01*
X294106Y16511D01*
X294213Y16261D01*
X294372Y16053D01*
X294586Y15969D01*
X294799Y16053D01*
X294959Y16261D01*
X295066Y16511D01*
X295146Y16844D01*
X295172Y17219D01*
X295146Y17594D01*
X295066Y17928D01*
X294959Y18178D01*
X294799Y18386D01*
X294586Y18469D01*
G01X296199Y16469D02*
X296359Y16178D01*
X296572Y16011D01*
X296813Y15969D01*
X297026Y16011D01*
X297239Y16219D01*
X297372Y16469D01*
X297399Y16719D01*
X297346Y17011D01*
X297159Y17219D01*
X296972Y17303D01*
X296733D01*
G01X296972D02*
X297133Y17428D01*
X297266Y17636D01*
X297319Y17886D01*
X297266Y18136D01*
X297133Y18344D01*
X296893Y18469D01*
X296652Y18428D01*
X296413Y18261D01*
G01X298399Y16344D02*
X298559Y16136D01*
X298746Y16011D01*
X298986Y15969D01*
X299226Y16053D01*
X299413Y16219D01*
X299546Y16511D01*
X299572Y16844D01*
X299519Y17178D01*
X299386Y17386D01*
X299199Y17553D01*
X299013Y17594D01*
X298826Y17553D01*
X298586Y17386D01*
X298666Y18469D01*
X299386D01*
G01X302693Y15969D02*
Y18469D01*
X303386Y16386D01*
X304079Y18469D01*
Y15969D01*
G01X304893D02*
Y18469D01*
X305586Y16386D01*
X306279Y18469D01*
Y15969D01*
G01X230199Y11476D02*
X231372Y13310D01*
G01X230786Y13643D02*
Y11143D01*
G01X231372Y11476D02*
X230199Y13310D01*
G01X229986Y12393D02*
X231586D01*
G01X236826Y11893D02*
X237039Y11685D01*
X237279Y11560D01*
X237493D01*
X237706Y11685D01*
X237866Y11893D01*
X237946Y12185D01*
X237893Y12476D01*
X237759Y12726D01*
X237519Y12893D01*
X237199Y12976D01*
X237013Y13143D01*
X236932Y13435D01*
X236986Y13726D01*
X237119Y13935D01*
X237306Y14060D01*
X237493D01*
X237679Y13976D01*
X237839Y13768D01*
G01X238999Y14060D02*
Y12268D01*
X239106Y11893D01*
X239319Y11643D01*
X239586Y11560D01*
X239852Y11643D01*
X240066Y11893D01*
X240172Y12268D01*
Y14060D01*
G01X241252Y11560D02*
Y14060D01*
X241919D01*
X242133Y13935D01*
X242266Y13768D01*
X242319Y13435D01*
X242266Y13102D01*
X242106Y12893D01*
X241919Y12768D01*
X241252D01*
G01X241919D02*
X242319Y11560D01*
G01X243479D02*
Y14060D01*
X244493D01*
G01X244119Y12852D02*
X243479D01*
G01X245519Y11560D02*
X246186Y14060D01*
X246852Y11560D01*
G01X246613Y12435D02*
X245759D01*
G01X248972Y13852D02*
X248813Y13976D01*
X248626Y14060D01*
X248413D01*
X248172Y13935D01*
X247986Y13726D01*
X247852Y13476D01*
X247746Y13060D01*
X247719Y12685D01*
X247772Y12310D01*
X247852Y12060D01*
X248013Y11810D01*
X248199Y11643D01*
X248386Y11560D01*
X248572D01*
X248759Y11643D01*
X248919Y11768D01*
X249052Y11935D01*
G01X251119Y11560D02*
X250052D01*
Y14060D01*
X251119D01*
G01X250693Y12852D02*
X250052D01*
G01X254639Y12393D02*
X255333D01*
G01X258719Y11560D02*
X259386Y14060D01*
X260052Y11560D01*
G01X259813Y12435D02*
X258959D01*
G01X261266Y14060D02*
X261906D01*
G01X261586D02*
Y11560D01*
G01X261266D02*
X261906D01*
G01X263252D02*
Y14060D01*
X263919D01*
X264133Y13935D01*
X264266Y13768D01*
X264319Y13435D01*
X264266Y13102D01*
X264106Y12893D01*
X263919Y12768D01*
X263252D01*
G01X263919D02*
X264319Y11560D01*
G01X268186Y14060D02*
X267972Y13976D01*
X267813Y13768D01*
X267706Y13518D01*
X267626Y13185D01*
X267599Y12810D01*
X267626Y12435D01*
X267706Y12102D01*
X267813Y11852D01*
X267972Y11643D01*
X268186Y11560D01*
X268399Y11643D01*
X268559Y11852D01*
X268666Y12102D01*
X268746Y12435D01*
X268772Y12810D01*
X268746Y13185D01*
X268666Y13518D01*
X268559Y13768D01*
X268399Y13976D01*
X268186Y14060D01*
G01X271893Y11560D02*
Y14060D01*
X272586Y11976D01*
X273279Y14060D01*
Y11560D01*
G01X274093D02*
Y14060D01*
X274786Y11976D01*
X275479Y14060D01*
Y11560D01*
G01X230199Y115597D02*
X231372Y117430D01*
G01X230786Y117764D02*
Y115264D01*
G01X231372Y115597D02*
X230199Y117430D01*
G01X229986Y116514D02*
X231586D01*
G01X236799Y115680D02*
Y118180D01*
X237333D01*
X237546Y118055D01*
X237706Y117889D01*
X237839Y117639D01*
X237946Y117347D01*
X237972Y116930D01*
X237946Y116514D01*
X237839Y116222D01*
X237706Y115972D01*
X237546Y115805D01*
X237333Y115680D01*
X236799D01*
G01X239266Y118180D02*
X239906D01*
G01X239586D02*
Y115680D01*
G01X239266D02*
X239906D01*
G01X242319D02*
X241252D01*
Y118180D01*
X242319D01*
G01X241893Y116972D02*
X241252D01*
G01X243452Y118180D02*
Y115680D01*
X244519D01*
G01X246719D02*
X245652D01*
Y118180D01*
X246719D01*
G01X246293Y116972D02*
X245652D01*
G01X248972Y117972D02*
X248813Y118097D01*
X248626Y118180D01*
X248413D01*
X248172Y118055D01*
X247986Y117847D01*
X247852Y117597D01*
X247746Y117180D01*
X247719Y116805D01*
X247772Y116430D01*
X247852Y116180D01*
X248013Y115930D01*
X248199Y115764D01*
X248386Y115680D01*
X248572D01*
X248759Y115764D01*
X248919Y115889D01*
X249052Y116055D01*
G01X250586Y118180D02*
Y115680D01*
G01X249972Y118180D02*
X251199D01*
G01X252252Y115680D02*
Y118180D01*
X252919D01*
X253133Y118055D01*
X253266Y117889D01*
X253319Y117555D01*
X253266Y117222D01*
X253106Y117014D01*
X252919Y116889D01*
X252252D01*
G01X252919D02*
X253319Y115680D01*
G01X254666Y118180D02*
X255306D01*
G01X254986D02*
Y115680D01*
G01X254666D02*
X255306D01*
G01X257772Y117972D02*
X257613Y118097D01*
X257426Y118180D01*
X257213D01*
X256972Y118055D01*
X256786Y117847D01*
X256652Y117597D01*
X256546Y117180D01*
X256519Y116805D01*
X256572Y116430D01*
X256652Y116180D01*
X256813Y115930D01*
X256999Y115764D01*
X257186Y115680D01*
X257372D01*
X257559Y115764D01*
X257719Y115889D01*
X257852Y116055D01*
G01X261239Y116514D02*
X261933D01*
G01X265479Y115680D02*
Y118180D01*
X266493D01*
G01X266119Y116972D02*
X265479D01*
G01X267652Y115680D02*
Y118180D01*
X268319D01*
X268533Y118055D01*
X268666Y117889D01*
X268719Y117555D01*
X268666Y117222D01*
X268506Y117014D01*
X268319Y116889D01*
X267652D01*
G01X268319D02*
X268719Y115680D01*
G01X270039Y116514D02*
X270733D01*
G01X272906Y115680D02*
Y118180D01*
X271919Y116389D01*
X273252D01*
G01X276986Y115680D02*
Y118180D01*
X276666Y117680D01*
G01Y115680D02*
X277306D01*
G01X279186Y115597D02*
X279133Y115639D01*
Y115722D01*
X279186Y115764D01*
X279239Y115722D01*
Y115639D01*
X279186Y115597D01*
G01X280799Y116055D02*
X280959Y115847D01*
X281146Y115722D01*
X281386Y115680D01*
X281626Y115764D01*
X281813Y115930D01*
X281946Y116222D01*
X281972Y116555D01*
X281919Y116889D01*
X281786Y117097D01*
X281599Y117264D01*
X281413Y117305D01*
X281226Y117264D01*
X280986Y117097D01*
X281066Y118180D01*
X281786D01*
G01X282999Y116180D02*
X283159Y115889D01*
X283372Y115722D01*
X283613Y115680D01*
X283826Y115722D01*
X284039Y115930D01*
X284172Y116180D01*
X284199Y116430D01*
X284146Y116722D01*
X283959Y116930D01*
X283772Y117014D01*
X283533D01*
G01X283772D02*
X283933Y117139D01*
X284066Y117347D01*
X284119Y117597D01*
X284066Y117847D01*
X283933Y118055D01*
X283693Y118180D01*
X283452Y118139D01*
X283213Y117972D01*
G01X287293Y115680D02*
Y118180D01*
X287986Y116097D01*
X288679Y118180D01*
Y115680D01*
G01X289493D02*
Y118180D01*
X290186Y116097D01*
X290879Y118180D01*
Y115680D01*
G01X225852Y215635D02*
Y213135D01*
X226919D01*
G01X228586D02*
Y215635D01*
X228266Y215135D01*
G01Y213135D02*
X228906D01*
G01X232986Y215635D02*
Y213135D01*
G01X232372Y215635D02*
X233599D01*
G01X235186Y213135D02*
X234972Y213176D01*
X234786Y213343D01*
X234626Y213593D01*
X234519Y213885D01*
X234466Y214218D01*
Y214551D01*
X234519Y214885D01*
X234626Y215176D01*
X234786Y215426D01*
X234972Y215593D01*
X235186Y215635D01*
X235399Y215593D01*
X235586Y215426D01*
X235746Y215176D01*
X235852Y214885D01*
X235906Y214551D01*
Y214218D01*
X235852Y213885D01*
X235746Y213593D01*
X235586Y213343D01*
X235399Y213176D01*
X235186Y213135D01*
G01X236852D02*
Y215635D01*
X237493D01*
X237706Y215509D01*
X237866Y215218D01*
X237919Y214885D01*
X237866Y214551D01*
X237733Y214301D01*
X237493Y214176D01*
X236852D01*
G01X242372Y215426D02*
X242213Y215551D01*
X242026Y215635D01*
X241813D01*
X241572Y215509D01*
X241386Y215301D01*
X241252Y215051D01*
X241146Y214635D01*
X241119Y214259D01*
X241172Y213885D01*
X241252Y213635D01*
X241413Y213385D01*
X241599Y213218D01*
X241786Y213135D01*
X241972D01*
X242159Y213218D01*
X242319Y213343D01*
X242452Y213509D01*
G01X243986Y213135D02*
X243772Y213176D01*
X243586Y213343D01*
X243426Y213593D01*
X243319Y213885D01*
X243266Y214218D01*
Y214551D01*
X243319Y214885D01*
X243426Y215176D01*
X243586Y215426D01*
X243772Y215593D01*
X243986Y215635D01*
X244199Y215593D01*
X244386Y215426D01*
X244546Y215176D01*
X244652Y214885D01*
X244706Y214551D01*
Y214218D01*
X244652Y213885D01*
X244546Y213593D01*
X244386Y213343D01*
X244199Y213176D01*
X243986Y213135D01*
G01X245572D02*
Y215635D01*
X246799Y213135D01*
Y215635D01*
G01X247799Y213135D02*
Y215635D01*
X248333D01*
X248546Y215509D01*
X248706Y215343D01*
X248839Y215093D01*
X248946Y214801D01*
X248972Y214385D01*
X248946Y213968D01*
X248839Y213676D01*
X248706Y213426D01*
X248546Y213259D01*
X248333Y213135D01*
X247799D01*
G01X249999Y215635D02*
Y213843D01*
X250106Y213468D01*
X250319Y213218D01*
X250586Y213135D01*
X250852Y213218D01*
X251066Y213468D01*
X251172Y213843D01*
Y215635D01*
G01X253372Y215426D02*
X253213Y215551D01*
X253026Y215635D01*
X252813D01*
X252572Y215509D01*
X252386Y215301D01*
X252252Y215051D01*
X252146Y214635D01*
X252119Y214259D01*
X252172Y213885D01*
X252252Y213635D01*
X252413Y213385D01*
X252599Y213218D01*
X252786Y213135D01*
X252972D01*
X253159Y213218D01*
X253319Y213343D01*
X253452Y213509D01*
G01X254986Y215635D02*
Y213135D01*
G01X254372Y215635D02*
X255599D01*
G01X257186Y213135D02*
X256972Y213176D01*
X256786Y213343D01*
X256626Y213593D01*
X256519Y213885D01*
X256466Y214218D01*
Y214551D01*
X256519Y214885D01*
X256626Y215176D01*
X256786Y215426D01*
X256972Y215593D01*
X257186Y215635D01*
X257399Y215593D01*
X257586Y215426D01*
X257746Y215176D01*
X257852Y214885D01*
X257906Y214551D01*
Y214218D01*
X257852Y213885D01*
X257746Y213593D01*
X257586Y213343D01*
X257399Y213176D01*
X257186Y213135D01*
G01X258852D02*
Y215635D01*
X259519D01*
X259733Y215509D01*
X259866Y215343D01*
X259919Y215009D01*
X259866Y214676D01*
X259706Y214468D01*
X259519Y214343D01*
X258852D01*
G01X259519D02*
X259919Y213135D01*
G01X263439Y213968D02*
X264133D01*
G01X268772Y215426D02*
X268613Y215551D01*
X268426Y215635D01*
X268213D01*
X267972Y215509D01*
X267786Y215301D01*
X267652Y215051D01*
X267546Y214635D01*
X267519Y214259D01*
X267572Y213885D01*
X267652Y213635D01*
X267813Y213385D01*
X267999Y213218D01*
X268186Y213135D01*
X268372D01*
X268559Y213218D01*
X268719Y213343D01*
X268852Y213509D01*
G01X270386Y213135D02*
X270172Y213176D01*
X269986Y213343D01*
X269826Y213593D01*
X269719Y213885D01*
X269666Y214218D01*
Y214551D01*
X269719Y214885D01*
X269826Y215176D01*
X269986Y215426D01*
X270172Y215593D01*
X270386Y215635D01*
X270599Y215593D01*
X270786Y215426D01*
X270946Y215176D01*
X271052Y214885D01*
X271106Y214551D01*
Y214218D01*
X271052Y213885D01*
X270946Y213593D01*
X270786Y213343D01*
X270599Y213176D01*
X270386Y213135D01*
G01X272052D02*
Y215635D01*
X272693D01*
X272906Y215509D01*
X273066Y215218D01*
X273119Y214885D01*
X273066Y214551D01*
X272933Y214301D01*
X272693Y214176D01*
X272052D01*
G01X274252Y213135D02*
Y215635D01*
X274893D01*
X275106Y215509D01*
X275266Y215218D01*
X275319Y214885D01*
X275266Y214551D01*
X275133Y214301D01*
X274893Y214176D01*
X274252D01*
G01X277519Y213135D02*
X276452D01*
Y215635D01*
X277519D01*
G01X277093Y214426D02*
X276452D01*
G01X278652Y213135D02*
Y215635D01*
X279319D01*
X279533Y215509D01*
X279666Y215343D01*
X279719Y215009D01*
X279666Y214676D01*
X279506Y214468D01*
X279319Y214343D01*
X278652D01*
G01X279319D02*
X279719Y213135D01*
G01X283586Y215635D02*
X283372Y215551D01*
X283213Y215343D01*
X283106Y215093D01*
X283026Y214759D01*
X282999Y214385D01*
X283026Y214009D01*
X283106Y213676D01*
X283213Y213426D01*
X283372Y213218D01*
X283586Y213135D01*
X283799Y213218D01*
X283959Y213426D01*
X284066Y213676D01*
X284146Y214009D01*
X284172Y214385D01*
X284146Y214759D01*
X284066Y215093D01*
X283959Y215343D01*
X283799Y215551D01*
X283586Y215635D01*
G01X285786Y213051D02*
X285733Y213093D01*
Y213176D01*
X285786Y213218D01*
X285839Y213176D01*
Y213093D01*
X285786Y213051D01*
G01X287986Y215635D02*
X287772Y215551D01*
X287613Y215343D01*
X287506Y215093D01*
X287426Y214759D01*
X287399Y214385D01*
X287426Y214009D01*
X287506Y213676D01*
X287613Y213426D01*
X287772Y213218D01*
X287986Y213135D01*
X288199Y213218D01*
X288359Y213426D01*
X288466Y213676D01*
X288546Y214009D01*
X288572Y214385D01*
X288546Y214759D01*
X288466Y215093D01*
X288359Y215343D01*
X288199Y215551D01*
X287986Y215635D01*
G01X289599Y213635D02*
X289759Y213343D01*
X289972Y213176D01*
X290213Y213135D01*
X290426Y213176D01*
X290639Y213385D01*
X290772Y213635D01*
X290799Y213885D01*
X290746Y214176D01*
X290559Y214385D01*
X290372Y214468D01*
X290133D01*
G01X290372D02*
X290533Y214593D01*
X290666Y214801D01*
X290719Y215051D01*
X290666Y215301D01*
X290533Y215509D01*
X290293Y215635D01*
X290052Y215593D01*
X289813Y215426D01*
G01X291799Y213509D02*
X291959Y213301D01*
X292146Y213176D01*
X292386Y213135D01*
X292626Y213218D01*
X292813Y213385D01*
X292946Y213676D01*
X292972Y214009D01*
X292919Y214343D01*
X292786Y214551D01*
X292599Y214718D01*
X292413Y214759D01*
X292226Y214718D01*
X291986Y214551D01*
X292066Y215635D01*
X292786D01*
G01X296093Y213135D02*
Y215635D01*
X296786Y213551D01*
X297479Y215635D01*
Y213135D01*
G01X298293D02*
Y215635D01*
X298986Y213551D01*
X299679Y215635D01*
Y213135D01*
G01X230199Y217217D02*
X231372Y219051D01*
G01X230786Y219384D02*
Y216884D01*
G01X231372Y217217D02*
X230199Y219051D01*
G01X229986Y218134D02*
X231586D01*
G01X236826Y217634D02*
X237039Y217426D01*
X237279Y217301D01*
X237493D01*
X237706Y217426D01*
X237866Y217634D01*
X237946Y217926D01*
X237893Y218217D01*
X237759Y218467D01*
X237519Y218634D01*
X237199Y218717D01*
X237013Y218884D01*
X236932Y219176D01*
X236986Y219467D01*
X237119Y219676D01*
X237306Y219801D01*
X237493D01*
X237679Y219717D01*
X237839Y219509D01*
G01X238999Y219801D02*
Y218009D01*
X239106Y217634D01*
X239319Y217384D01*
X239586Y217301D01*
X239852Y217384D01*
X240066Y217634D01*
X240172Y218009D01*
Y219801D01*
G01X241252Y217301D02*
Y219801D01*
X241919D01*
X242133Y219676D01*
X242266Y219509D01*
X242319Y219176D01*
X242266Y218843D01*
X242106Y218634D01*
X241919Y218509D01*
X241252D01*
G01X241919D02*
X242319Y217301D01*
G01X243479D02*
Y219801D01*
X244493D01*
G01X244119Y218593D02*
X243479D01*
G01X245519Y217301D02*
X246186Y219801D01*
X246852Y217301D01*
G01X246613Y218176D02*
X245759D01*
G01X248972Y219593D02*
X248813Y219717D01*
X248626Y219801D01*
X248413D01*
X248172Y219676D01*
X247986Y219467D01*
X247852Y219217D01*
X247746Y218801D01*
X247719Y218426D01*
X247772Y218051D01*
X247852Y217801D01*
X248013Y217551D01*
X248199Y217384D01*
X248386Y217301D01*
X248572D01*
X248759Y217384D01*
X248919Y217509D01*
X249052Y217676D01*
G01X251119Y217301D02*
X250052D01*
Y219801D01*
X251119D01*
G01X250693Y218593D02*
X250052D01*
G01X254639Y218134D02*
X255333D01*
G01X258719Y217301D02*
X259386Y219801D01*
X260052Y217301D01*
G01X259813Y218176D02*
X258959D01*
G01X261266Y219801D02*
X261906D01*
G01X261586D02*
Y217301D01*
G01X261266D02*
X261906D01*
G01X263252D02*
Y219801D01*
X263919D01*
X264133Y219676D01*
X264266Y219509D01*
X264319Y219176D01*
X264266Y218843D01*
X264106Y218634D01*
X263919Y218509D01*
X263252D01*
G01X263919D02*
X264319Y217301D01*
G01X268186Y219801D02*
X267972Y219717D01*
X267813Y219509D01*
X267706Y219259D01*
X267626Y218926D01*
X267599Y218551D01*
X267626Y218176D01*
X267706Y217843D01*
X267813Y217593D01*
X267972Y217384D01*
X268186Y217301D01*
X268399Y217384D01*
X268559Y217593D01*
X268666Y217843D01*
X268746Y218176D01*
X268772Y218551D01*
X268746Y218926D01*
X268666Y219259D01*
X268559Y219509D01*
X268399Y219717D01*
X268186Y219801D01*
G01X271893Y217301D02*
Y219801D01*
X272586Y217717D01*
X273279Y219801D01*
Y217301D01*
G01X274093D02*
Y219801D01*
X274786Y217717D01*
X275479Y219801D01*
Y217301D01*
G01X-3937Y-108465D02*
Y-7874D01*
X492063D01*
Y-108465D01*
X-3937D01*
G01Y-58465D02*
X492063D01*
G01X-3937Y-83465D02*
X492063D01*
G01X-3937Y-33465D02*
X492063D01*
G01X157480Y0D02*
Y157480D01*
X0D01*
Y0D01*
X157480D01*
G01X7068Y-77215D02*
Y-64715D01*
X12958D01*
G01X10788Y-70756D02*
X7068D01*
G01X20553Y-64715D02*
X24273D01*
G01X22413D02*
Y-77215D01*
G01X20553D02*
X24273D01*
G01X35743Y-70965D02*
X38843D01*
Y-74715D01*
X37913Y-75965D01*
X36828Y-76798D01*
X35278Y-77215D01*
X33728Y-76798D01*
X32643Y-75965D01*
X31713Y-74715D01*
X31093Y-73256D01*
X30783Y-71590D01*
Y-70131D01*
X31093Y-68881D01*
X31713Y-67423D01*
X32643Y-66173D01*
X33573Y-65340D01*
X34813Y-64715D01*
X35898D01*
X37138Y-65131D01*
X38068Y-65965D01*
G01X43803Y-64715D02*
Y-73673D01*
X44423Y-75548D01*
X45663Y-76798D01*
X47213Y-77215D01*
X48763Y-76798D01*
X50003Y-75548D01*
X50623Y-73673D01*
Y-64715D01*
G01X56513Y-77215D02*
Y-64715D01*
X60388D01*
X61628Y-65340D01*
X62403Y-66173D01*
X62713Y-67840D01*
X62403Y-69506D01*
X61473Y-70548D01*
X60388Y-71173D01*
X56513D01*
G01X60388D02*
X62713Y-77215D01*
G01X75113D02*
X68913D01*
Y-64715D01*
X75113D01*
G01X72633Y-70756D02*
X68913D01*
G01X85963Y-58465D02*
Y-108465D01*
G01X85653Y-26624D02*
Y-14124D01*
X88753D01*
X89993Y-14749D01*
X90923Y-15582D01*
X91698Y-16832D01*
X92318Y-18291D01*
X92473Y-20374D01*
X92318Y-22457D01*
X91698Y-23916D01*
X90923Y-25166D01*
X89993Y-25999D01*
X88753Y-26624D01*
X85653D01*
G01X98363D02*
Y-14124D01*
X102238D01*
X103478Y-14749D01*
X104253Y-15582D01*
X104563Y-17249D01*
X104253Y-18916D01*
X103323Y-19957D01*
X102238Y-20583D01*
X98363D01*
G01X102238D02*
X104563Y-26624D01*
G01X112003Y-14124D02*
X115723D01*
G01X113863D02*
Y-26624D01*
G01X112003D02*
X115723D01*
G01X123163Y-14124D02*
Y-26624D01*
X129363D01*
G01X135563Y-14124D02*
Y-26624D01*
X141763D01*
G01X166873Y-15166D02*
X165943Y-14541D01*
X164858Y-14124D01*
X163618D01*
X162223Y-14749D01*
X161138Y-15791D01*
X160363Y-17041D01*
X159743Y-19124D01*
X159588Y-20999D01*
X159898Y-22874D01*
X160363Y-24124D01*
X161293Y-25374D01*
X162378Y-26207D01*
X163463Y-26624D01*
X164548D01*
X165633Y-26207D01*
X166563Y-25583D01*
X167338Y-24750D01*
G01X172608Y-26624D02*
Y-14124D01*
G01X179118D02*
Y-26624D01*
G01Y-20374D02*
X172608D01*
G01X184388Y-26624D02*
X188263Y-14124D01*
X192138Y-26624D01*
G01X190743Y-22249D02*
X185783D01*
G01X197563Y-26624D02*
Y-14124D01*
X201438D01*
X202678Y-14749D01*
X203453Y-15582D01*
X203763Y-17249D01*
X203453Y-18916D01*
X202523Y-19957D01*
X201438Y-20583D01*
X197563D01*
G01X201438D02*
X203763Y-26624D01*
G01X213063Y-14124D02*
Y-26624D01*
G01X209498Y-14124D02*
X216628D01*
G01X225463Y-27041D02*
X225153Y-26832D01*
Y-26416D01*
X225463Y-26207D01*
X225773Y-26416D01*
Y-26832D01*
X225463Y-27041D01*
G01Y-21416D02*
X225153Y-21207D01*
Y-20791D01*
X225463Y-20583D01*
X225773Y-20791D01*
Y-21207D01*
X225463Y-21416D01*
G01X250263Y-14124D02*
Y-26624D01*
G01X246698Y-14124D02*
X253828D01*
G01X262663Y-26624D02*
X261423Y-26416D01*
X260338Y-25583D01*
X259408Y-24332D01*
X258788Y-22874D01*
X258478Y-21207D01*
Y-19541D01*
X258788Y-17874D01*
X259408Y-16416D01*
X260338Y-15166D01*
X261423Y-14332D01*
X262663Y-14124D01*
X263903Y-14332D01*
X264988Y-15166D01*
X265918Y-16416D01*
X266538Y-17874D01*
X266848Y-19541D01*
Y-21207D01*
X266538Y-22874D01*
X265918Y-24332D01*
X264988Y-25583D01*
X263903Y-26416D01*
X262663Y-26624D01*
G01X271963D02*
Y-14124D01*
X275683D01*
X276923Y-14749D01*
X277853Y-16207D01*
X278163Y-17874D01*
X277853Y-19541D01*
X277078Y-20791D01*
X275683Y-21416D01*
X271963D01*
G01X299863Y-14124D02*
Y-26624D01*
G01X297693Y-18291D02*
X302033D01*
G01X312263Y-26624D02*
X311333Y-26416D01*
X310403Y-25583D01*
X309783Y-24124D01*
X309473Y-22457D01*
X309783Y-20791D01*
X310403Y-19332D01*
X311333Y-18499D01*
X312263Y-18291D01*
X313193Y-18499D01*
X314123Y-19332D01*
X314743Y-20791D01*
X314898Y-22457D01*
X314743Y-24124D01*
X314123Y-25583D01*
X313193Y-26416D01*
X312263Y-26624D01*
G01X338303Y-19957D02*
X338923Y-19332D01*
X339388Y-18291D01*
X339698Y-16832D01*
X339388Y-15582D01*
X338768Y-14749D01*
X337683Y-14124D01*
X333498D01*
Y-26624D01*
X338613D01*
X339698Y-25791D01*
X340318Y-24541D01*
X340628Y-23082D01*
X340318Y-21624D01*
X339388Y-20374D01*
X338303Y-19957D01*
X333498D01*
G01X349463Y-26624D02*
X348223Y-26416D01*
X347138Y-25583D01*
X346208Y-24332D01*
X345588Y-22874D01*
X345278Y-21207D01*
Y-19541D01*
X345588Y-17874D01*
X346208Y-16416D01*
X347138Y-15166D01*
X348223Y-14332D01*
X349463Y-14124D01*
X350703Y-14332D01*
X351788Y-15166D01*
X352718Y-16416D01*
X353338Y-17874D01*
X353648Y-19541D01*
Y-21207D01*
X353338Y-22874D01*
X352718Y-24332D01*
X351788Y-25583D01*
X350703Y-26416D01*
X349463Y-26624D01*
G01X361863Y-14124D02*
Y-26624D01*
G01X358298Y-14124D02*
X365428D01*
G01X374263D02*
Y-26624D01*
G01X370698Y-14124D02*
X377828D01*
G01X386663Y-26624D02*
X385423Y-26416D01*
X384338Y-25583D01*
X383408Y-24332D01*
X382788Y-22874D01*
X382478Y-21207D01*
Y-19541D01*
X382788Y-17874D01*
X383408Y-16416D01*
X384338Y-15166D01*
X385423Y-14332D01*
X386663Y-14124D01*
X387903Y-14332D01*
X388988Y-15166D01*
X389918Y-16416D01*
X390538Y-17874D01*
X390848Y-19541D01*
Y-21207D01*
X390538Y-22874D01*
X389918Y-24332D01*
X388988Y-25583D01*
X387903Y-26416D01*
X386663Y-26624D01*
G01X395033D02*
Y-14124D01*
X399063Y-24541D01*
X403093Y-14124D01*
Y-26624D01*
G01X103788Y-52215D02*
X107663Y-39715D01*
X111538Y-52215D01*
G01X110143Y-47840D02*
X105183D01*
G01X116963Y-39715D02*
Y-52215D01*
X123163D01*
G01X129363Y-39715D02*
Y-52215D01*
X135563D01*
G01X153853Y-39715D02*
Y-48673D01*
X154473Y-50548D01*
X155713Y-51798D01*
X157263Y-52215D01*
X158813Y-51798D01*
X160053Y-50548D01*
X160673Y-48673D01*
Y-39715D01*
G01X166098Y-52215D02*
Y-39715D01*
X173228Y-52215D01*
Y-39715D01*
G01X180203D02*
X183923D01*
G01X182063D02*
Y-52215D01*
G01X180203D02*
X183923D01*
G01X194463Y-39715D02*
Y-52215D01*
G01X190898Y-39715D02*
X198028D01*
G01X203608Y-50548D02*
X204848Y-51590D01*
X206243Y-52215D01*
X207483D01*
X208723Y-51590D01*
X209653Y-50548D01*
X210118Y-49089D01*
X209808Y-47631D01*
X209033Y-46381D01*
X207638Y-45548D01*
X205778Y-45131D01*
X204693Y-44298D01*
X204228Y-42840D01*
X204538Y-41381D01*
X205313Y-40340D01*
X206398Y-39715D01*
X207483D01*
X208568Y-40131D01*
X209498Y-41173D01*
G01X227788Y-52215D02*
X231663Y-39715D01*
X235538Y-52215D01*
G01X234143Y-47840D02*
X229183D01*
G01X240963Y-52215D02*
Y-39715D01*
X244838D01*
X246078Y-40340D01*
X246853Y-41173D01*
X247163Y-42840D01*
X246853Y-44506D01*
X245923Y-45548D01*
X244838Y-46173D01*
X240963D01*
G01X244838D02*
X247163Y-52215D01*
G01X259563D02*
X253363D01*
Y-39715D01*
X259563D01*
G01X257083Y-45756D02*
X253363D01*
G01X279403Y-39715D02*
X283123D01*
G01X281263D02*
Y-52215D01*
G01X279403D02*
X283123D01*
G01X290098D02*
Y-39715D01*
X297228Y-52215D01*
Y-39715D01*
G01X316603D02*
X320323D01*
G01X318463D02*
Y-52215D01*
G01X316603D02*
X320323D01*
G01X327298D02*
Y-39715D01*
X334428Y-52215D01*
Y-39715D01*
G01X346673Y-40756D02*
X345743Y-40131D01*
X344658Y-39715D01*
X343418D01*
X342023Y-40340D01*
X340938Y-41381D01*
X340163Y-42631D01*
X339543Y-44715D01*
X339388Y-46590D01*
X339698Y-48465D01*
X340163Y-49715D01*
X341093Y-50965D01*
X342178Y-51798D01*
X343263Y-52215D01*
X344348D01*
X345433Y-51798D01*
X346363Y-51173D01*
X347138Y-50340D01*
G01X352408Y-52215D02*
Y-39715D01*
G01X358918D02*
Y-52215D01*
G01Y-45965D02*
X352408D01*
G01X371163Y-52215D02*
X364963D01*
Y-39715D01*
X371163D01*
G01X368683Y-45756D02*
X364963D01*
G01X377208Y-50548D02*
X378448Y-51590D01*
X379843Y-52215D01*
X381083D01*
X382323Y-51590D01*
X383253Y-50548D01*
X383718Y-49089D01*
X383408Y-47631D01*
X382633Y-46381D01*
X381238Y-45548D01*
X379378Y-45131D01*
X378293Y-44298D01*
X377828Y-42840D01*
X378138Y-41381D01*
X378913Y-40340D01*
X379998Y-39715D01*
X381083D01*
X382168Y-40131D01*
X383098Y-41173D01*
G01X109368Y-77215D02*
Y-64715D01*
X115258D01*
G01X113088Y-70756D02*
X109368D01*
G01X122853Y-64715D02*
X126573D01*
G01X124713D02*
Y-77215D01*
G01X122853D02*
X126573D01*
G01X133548D02*
Y-64715D01*
X140678Y-77215D01*
Y-64715D01*
G01X147653D02*
X151373D01*
G01X149513D02*
Y-77215D01*
G01X147653D02*
X151373D01*
G01X158658Y-75548D02*
X159898Y-76590D01*
X161293Y-77215D01*
X162533D01*
X163773Y-76590D01*
X164703Y-75548D01*
X165168Y-74089D01*
X164858Y-72631D01*
X164083Y-71381D01*
X162688Y-70548D01*
X160828Y-70131D01*
X159743Y-69298D01*
X159278Y-67840D01*
X159588Y-66381D01*
X160363Y-65340D01*
X161448Y-64715D01*
X162533D01*
X163618Y-65131D01*
X164548Y-66173D01*
G01X171058Y-77215D02*
Y-64715D01*
G01X177568D02*
Y-77215D01*
G01Y-70965D02*
X171058D01*
G01X189813Y-77215D02*
X183613D01*
Y-64715D01*
X189813D01*
G01X187333Y-70756D02*
X183613D01*
G01X195703Y-77215D02*
Y-64715D01*
X198803D01*
X200043Y-65340D01*
X200973Y-66173D01*
X201748Y-67423D01*
X202368Y-68881D01*
X202523Y-70965D01*
X202368Y-73048D01*
X201748Y-74506D01*
X200973Y-75757D01*
X200043Y-76590D01*
X198803Y-77215D01*
X195703D01*
G01X206863Y-81381D02*
X216163D01*
G01X220658Y-75548D02*
X221898Y-76590D01*
X223293Y-77215D01*
X224533D01*
X225773Y-76590D01*
X226703Y-75548D01*
X227168Y-74089D01*
X226858Y-72631D01*
X226083Y-71381D01*
X224688Y-70548D01*
X222828Y-70131D01*
X221743Y-69298D01*
X221278Y-67840D01*
X221588Y-66381D01*
X222363Y-65340D01*
X223448Y-64715D01*
X224533D01*
X225618Y-65131D01*
X226548Y-66173D01*
G01X234453Y-64715D02*
X238173D01*
G01X236313D02*
Y-77215D01*
G01X234453D02*
X238173D01*
G01X245768Y-64715D02*
X251658D01*
X245768Y-77215D01*
X251658D01*
G01X264213D02*
X258013D01*
Y-64715D01*
X264213D01*
G01X261733Y-70756D02*
X258013D01*
G01X161913Y-89715D02*
X160673Y-90131D01*
X159743Y-91173D01*
X159123Y-92423D01*
X158658Y-94090D01*
X158503Y-95965D01*
X158658Y-97840D01*
X159123Y-99506D01*
X159743Y-100757D01*
X160673Y-101798D01*
X161913Y-102215D01*
X163153Y-101798D01*
X164083Y-100757D01*
X164703Y-99506D01*
X165168Y-97840D01*
X165323Y-95965D01*
X165168Y-94090D01*
X164703Y-92423D01*
X164083Y-91173D01*
X163153Y-90131D01*
X161913Y-89715D01*
G01X174313Y-102631D02*
X174003Y-102423D01*
Y-102006D01*
X174313Y-101798D01*
X174623Y-102006D01*
Y-102423D01*
X174313Y-102631D01*
G01X186713Y-89715D02*
X185473Y-90131D01*
X184543Y-91173D01*
X183923Y-92423D01*
X183458Y-94090D01*
X183303Y-95965D01*
X183458Y-97840D01*
X183923Y-99506D01*
X184543Y-100757D01*
X185473Y-101798D01*
X186713Y-102215D01*
X187953Y-101798D01*
X188883Y-100757D01*
X189503Y-99506D01*
X189968Y-97840D01*
X190123Y-95965D01*
X189968Y-94090D01*
X189503Y-92423D01*
X188883Y-91173D01*
X187953Y-90131D01*
X186713Y-89715D01*
G01X199113Y-102215D02*
Y-89715D01*
X197253Y-92215D01*
G01Y-102215D02*
X200973D01*
G01X208568Y-97007D02*
X209653Y-95548D01*
X210583Y-94715D01*
X211823Y-94298D01*
X212908Y-94715D01*
X213683Y-95548D01*
X214303Y-96798D01*
X214458Y-98256D01*
X214303Y-99506D01*
X213683Y-100757D01*
X212753Y-101798D01*
X211668Y-102215D01*
X210428Y-101798D01*
X209343Y-100548D01*
X208723Y-98673D01*
X208568Y-96590D01*
X208878Y-93881D01*
X209343Y-92423D01*
X210118Y-90965D01*
X211203Y-89923D01*
X212288Y-89715D01*
X213373Y-90131D01*
X214148Y-91173D01*
G01X163386Y19302D02*
Y212058D01*
X223386D01*
Y19302D01*
X163386D01*
G01X287463Y-58465D02*
Y-108465D01*
G01X316913Y-102215D02*
Y-89715D01*
X320633D01*
X321873Y-90340D01*
X322803Y-91798D01*
X323113Y-93465D01*
X322803Y-95131D01*
X322028Y-96381D01*
X320633Y-97007D01*
X316913D01*
G01X329313Y-89715D02*
Y-102215D01*
X335513D01*
G01X340938D02*
X344813Y-89715D01*
X348688Y-102215D01*
G01X347293Y-97840D02*
X342333D01*
G01X357213Y-89715D02*
Y-102215D01*
G01X353648Y-89715D02*
X360778D01*
G01X372713Y-102215D02*
X366513D01*
Y-89715D01*
X372713D01*
G01X370233Y-95756D02*
X366513D01*
G01X378603Y-102215D02*
Y-89715D01*
X381703D01*
X382943Y-90340D01*
X383873Y-91173D01*
X384648Y-92423D01*
X385268Y-93881D01*
X385423Y-95965D01*
X385268Y-98048D01*
X384648Y-99506D01*
X383873Y-100757D01*
X382943Y-101590D01*
X381703Y-102215D01*
X378603D01*
G01X316913Y-77215D02*
Y-64715D01*
X320633D01*
X321873Y-65340D01*
X322803Y-66798D01*
X323113Y-68465D01*
X322803Y-70131D01*
X322028Y-71381D01*
X320633Y-72007D01*
X316913D01*
G01X329313Y-64715D02*
Y-77215D01*
X335513D01*
G01X340938D02*
X344813Y-64715D01*
X348688Y-77215D01*
G01X347293Y-72840D02*
X342333D01*
G01X357213Y-64715D02*
Y-77215D01*
G01X353648Y-64715D02*
X360778D01*
G01X372713Y-77215D02*
X366513D01*
Y-64715D01*
X372713D01*
G01X370233Y-70756D02*
X366513D01*
G01X378603Y-77215D02*
Y-64715D01*
X381703D01*
X382943Y-65340D01*
X383873Y-66173D01*
X384648Y-67423D01*
X385268Y-68881D01*
X385423Y-70965D01*
X385268Y-73048D01*
X384648Y-74506D01*
X383873Y-75757D01*
X382943Y-76590D01*
X381703Y-77215D01*
X378603D01*
G01X414563Y-58465D02*
Y-108465D01*
G01X447113Y-102215D02*
Y-89715D01*
X445253Y-92215D01*
G01Y-102215D02*
X448973D01*
G01X459513D02*
X460598Y-102006D01*
X461838Y-101381D01*
X462613Y-100340D01*
X462923Y-98881D01*
X462613Y-97423D01*
X461683Y-96173D01*
X460288Y-95548D01*
X458738D01*
X457808Y-95131D01*
X457033Y-94090D01*
X456723Y-92631D01*
X457188Y-91173D01*
X458273Y-90131D01*
X459513Y-89715D01*
X460753Y-90131D01*
X461838Y-91173D01*
X462303Y-92631D01*
X461993Y-94090D01*
X461218Y-95131D01*
X460288Y-95548D01*
X458738D01*
X457343Y-96173D01*
X456413Y-97423D01*
X456103Y-98881D01*
X456413Y-100340D01*
X457188Y-101381D01*
X458428Y-102006D01*
X459513Y-102215D01*
G01X440913Y-77215D02*
X439673Y-77006D01*
X438588Y-76173D01*
X437658Y-74923D01*
X437038Y-73465D01*
X436728Y-71798D01*
Y-70131D01*
X437038Y-68465D01*
X437658Y-67006D01*
X438588Y-65756D01*
X439673Y-64923D01*
X440913Y-64715D01*
X442153Y-64923D01*
X443238Y-65756D01*
X444168Y-67006D01*
X444788Y-68465D01*
X445098Y-70131D01*
Y-71798D01*
X444788Y-73465D01*
X444168Y-74923D01*
X443238Y-76173D01*
X442153Y-77006D01*
X440913Y-77215D01*
G01X442153Y-73881D02*
X444013Y-77215D01*
G01X453313Y-64715D02*
Y-77215D01*
G01X449748Y-64715D02*
X456878D01*
G01X465713Y-77215D02*
Y-71590D01*
X462613Y-64715D01*
G01X468813D02*
X465713Y-71590D01*
M02*
