G04 ================== begin FILE IDENTIFICATION RECORD ==================*
G04 Layout Name:  MIZILOSCbrd15.brd*
G04 Film Name:    SMTOP*
G04 File Format:  Gerber RS274X*
G04 File Origin:  Cadence Allegro 17.2-S025*
G04 Origin Date:  Sat Dec 09 16:35:55 2023*
G04 *
G04 Layer:  PIN/SOLDERMASK_TOP*
G04 Layer:  VIA CLASS/SOLDERMASK_TOP*
G04 *
G04 Offset:    (0.0000 0.0000)*
G04 Mirror:    No*
G04 Mode:      Positive*
G04 Rotation:  0*
G04 FullContactRelief:  No*
G04 UndefLineWidth:     0.0000*
G04 ================== end FILE IDENTIFICATION RECORD ====================*
%FSLAX25Y25*MOIN*%
%IR0*IPPOS*OFA0.00000B0.00000*MIA0B0*SFA1.00000B1.00000*%
%ADD14C,.038*%
%ADD18C,.07874*%
%ADD11R,.127953X.088583*%
%ADD21R,.088583X.127953*%
%ADD17R,.088583X.061024*%
%ADD19R,.061024X.088583*%
%ADD16R,.061024X.061024*%
%ADD15R,.046X.06*%
%ADD13R,.06X.046*%
%ADD10R,.06X.06*%
%ADD20R,.058X.086*%
%ADD12R,.086X.058*%
%LPD*%
G75*
G54D10*
X31496Y9843D03*
Y18243D03*
X32939Y27559D03*
X19685Y55118D03*
X11285D03*
X9843Y65906D03*
Y74306D03*
Y85591D03*
Y93991D03*
Y116142D03*
Y124542D03*
Y105276D03*
X18243D03*
X41339Y9843D03*
Y18243D03*
Y27559D03*
X55118Y59055D03*
Y67455D03*
X64961Y78740D03*
Y87140D03*
X55118Y78740D03*
Y87140D03*
X57087Y139764D03*
Y148164D03*
X76772Y9843D03*
Y18243D03*
X86614Y9843D03*
Y18243D03*
X96457Y9843D03*
Y18243D03*
X78740Y139764D03*
Y148164D03*
X118110Y17717D03*
Y9317D03*
X124016Y49213D03*
Y40813D03*
X104331Y84646D03*
X112731D03*
X118110Y139764D03*
Y148164D03*
X100394Y139764D03*
Y148164D03*
X147638Y39370D03*
X139238D03*
X147638Y49213D03*
X139238D03*
X141732Y106299D03*
Y114699D03*
X131890Y106299D03*
Y114699D03*
G54D20*
X139764Y29528D03*
X147664D03*
X145669Y125984D03*
X137769D03*
G54D11*
X15748Y11217D03*
Y24217D03*
G54D12*
X31496Y59055D03*
Y51155D03*
X29528Y72835D03*
Y80735D03*
Y90551D03*
Y98451D03*
X31496Y139764D03*
Y147664D03*
X45276Y131890D03*
Y139790D03*
G54D21*
X146264Y13780D03*
X133264D03*
X146264Y141732D03*
X133264D03*
G54D13*
X37176Y118273D03*
X64961Y60698D03*
Y68898D03*
X45276Y114173D03*
Y122373D03*
X73061Y64798D03*
X84420Y94651D03*
X92520Y90551D03*
Y98751D03*
X78514Y110399D03*
X86614Y106299D03*
Y114499D03*
X70640Y126147D03*
X78740Y122047D03*
X92294Y128116D03*
X78740Y130247D03*
X112431Y62829D03*
X104331Y66929D03*
Y58729D03*
X106525Y110073D03*
X98425Y114173D03*
Y105973D03*
X100394Y124016D03*
Y132216D03*
G54D14*
X18043Y112205D03*
X29528Y120079D03*
Y110236D03*
X18043Y127953D03*
X41339Y35433D03*
X57087Y7874D03*
Y21654D03*
X41339Y62992D03*
Y55118D03*
X53150Y114173D03*
X76772Y25591D03*
X66929Y21654D03*
Y11811D03*
X72835Y87140D03*
X82677D03*
X70866Y114173D03*
X120079Y120079D03*
X131890Y25591D03*
G54D15*
X13943Y147864D03*
X9843Y139764D03*
X18043D03*
X51344Y51407D03*
X47244Y43307D03*
X55444D03*
X92357Y54892D03*
X96457Y62992D03*
X88257D03*
X92683Y82903D03*
X88583Y74803D03*
X96783D03*
G54D16*
X67717Y31496D03*
X76772D03*
X122047Y93701D03*
Y84646D03*
X145669Y61811D03*
Y70866D03*
G54D17*
X72244Y53740D03*
G54D18*
X90551Y137795D03*
X108268Y19685D03*
G54D19*
X123425Y66339D03*
X144291Y89173D03*
M02*
