G04 ================== begin FILE IDENTIFICATION RECORD ==================*
G04 Layout Name:  MIZILOSCbrd15.brd*
G04 Film Name:    SSTOP*
G04 File Format:  Gerber RS274X*
G04 File Origin:  Cadence Allegro 17.2-S025*
G04 Origin Date:  Sat Dec 09 16:35:55 2023*
G04 *
G04 Layer:  REF DES/SILKSCREEN_TOP*
G04 Layer:  PACKAGE GEOMETRY/SILKSCREEN_TOP*
G04 Layer:  BOARD GEOMETRY/SILKSCREEN_TOP*
G04 *
G04 Offset:    (0.0000 0.0000)*
G04 Mirror:    No*
G04 Mode:      Positive*
G04 Rotation:  0*
G04 FullContactRelief:  No*
G04 UndefLineWidth:     0.0000*
G04 ================== end FILE IDENTIFICATION RECORD ====================*
%FSLAX25Y25*MOIN*%
%IR0*IPPOS*OFA0.00000B0.00000*MIA0B0*SFA1.00000B1.00000*%
%ADD10C,.003937*%
%ADD11C,.007874*%
%ADD12C,.004*%
%ADD13C,.006*%
G75*
%LPD*%
G75*
G54D10*
G01X27559Y6172D02*
X25059D01*
Y6839D01*
X25184Y7052D01*
X25351Y7185D01*
X25684Y7239D01*
X26017Y7185D01*
X26226Y7026D01*
X26351Y6839D01*
Y6172D01*
G01Y6839D02*
X27559Y7239D01*
G01X25476Y8399D02*
X25226Y8559D01*
X25101Y8746D01*
X25059Y8959D01*
X25143Y9226D01*
X25351Y9412D01*
X25601Y9465D01*
X25851Y9439D01*
X26059Y9332D01*
X26476Y8799D01*
X26767Y8559D01*
X27184Y8399D01*
X27559Y8346D01*
Y9465D01*
G01X25476Y10599D02*
X25226Y10759D01*
X25101Y10946D01*
X25059Y11159D01*
X25143Y11426D01*
X25351Y11612D01*
X25601Y11665D01*
X25851Y11639D01*
X26059Y11532D01*
X26476Y10999D01*
X26767Y10759D01*
X27184Y10599D01*
X27559Y10546D01*
Y11665D01*
G01X6706Y31496D02*
X6492Y31538D01*
X6306Y31704D01*
X6146Y31954D01*
X6039Y32246D01*
X5985Y32580D01*
Y32913D01*
X6039Y33246D01*
X6146Y33538D01*
X6306Y33788D01*
X6492Y33954D01*
X6706Y33996D01*
X6919Y33954D01*
X7106Y33788D01*
X7265Y33538D01*
X7372Y33246D01*
X7426Y32913D01*
Y32580D01*
X7372Y32246D01*
X7265Y31954D01*
X7106Y31704D01*
X6919Y31538D01*
X6706Y31496D01*
G01X8319Y33996D02*
Y32204D01*
X8426Y31829D01*
X8639Y31580D01*
X8906Y31496D01*
X9172Y31580D01*
X9385Y31829D01*
X9492Y32204D01*
Y33996D01*
G01X11106D02*
Y31496D01*
G01X10492Y33996D02*
X11719D01*
G01X16015Y47244D02*
Y49744D01*
X16681D01*
X16895Y49619D01*
X17028Y49452D01*
X17081Y49119D01*
X17028Y48786D01*
X16868Y48578D01*
X16681Y48452D01*
X16015D01*
G01X16681D02*
X17081Y47244D01*
G01X18748D02*
Y49744D01*
X18428Y49244D01*
G01Y47244D02*
X19068D01*
G01X20361Y47619D02*
X20521Y47411D01*
X20708Y47286D01*
X20948Y47244D01*
X21188Y47328D01*
X21375Y47494D01*
X21508Y47786D01*
X21535Y48119D01*
X21481Y48452D01*
X21348Y48661D01*
X21161Y48828D01*
X20975Y48869D01*
X20788Y48828D01*
X20548Y48661D01*
X20628Y49744D01*
X21348D01*
G01X17717Y63259D02*
X15217D01*
Y63926D01*
X15342Y64139D01*
X15508Y64272D01*
X15842Y64326D01*
X16175Y64272D01*
X16383Y64112D01*
X16508Y63926D01*
Y63259D01*
G01Y63926D02*
X17717Y64326D01*
G01Y65992D02*
X15217D01*
X15717Y65672D01*
G01X17717D02*
Y66312D01*
G01Y68512D02*
X15217D01*
X17008Y67526D01*
Y68859D01*
G01X17717Y82944D02*
X15217D01*
Y83611D01*
X15342Y83824D01*
X15508Y83957D01*
X15842Y84011D01*
X16175Y83957D01*
X16383Y83797D01*
X16508Y83611D01*
Y82944D01*
G01Y83611D02*
X17717Y84011D01*
G01Y85677D02*
X15217D01*
X15717Y85357D01*
G01X17717D02*
Y85997D01*
G01X17217Y87291D02*
X17508Y87450D01*
X17675Y87664D01*
X17717Y87904D01*
X17675Y88117D01*
X17467Y88331D01*
X17217Y88464D01*
X16967Y88491D01*
X16675Y88437D01*
X16467Y88250D01*
X16383Y88064D01*
Y87824D01*
G01Y88064D02*
X16258Y88224D01*
X16050Y88357D01*
X15800Y88411D01*
X15550Y88357D01*
X15342Y88224D01*
X15217Y87984D01*
X15258Y87744D01*
X15425Y87504D01*
G01Y117528D02*
X15300Y117369D01*
X15217Y117182D01*
Y116969D01*
X15342Y116728D01*
X15550Y116542D01*
X15800Y116408D01*
X16217Y116302D01*
X16592Y116275D01*
X16967Y116328D01*
X17217Y116408D01*
X17467Y116569D01*
X17633Y116755D01*
X17717Y116942D01*
Y117128D01*
X17633Y117315D01*
X17508Y117475D01*
X17342Y117608D01*
G01X17717Y119142D02*
X15217D01*
X15717Y118822D01*
G01X17717D02*
Y119462D01*
G01X25857Y104331D02*
Y106831D01*
X26524D01*
X26737Y106706D01*
X26870Y106539D01*
X26924Y106206D01*
X26870Y105872D01*
X26711Y105664D01*
X26524Y105539D01*
X25857D01*
G01X26524D02*
X26924Y104331D01*
G01X28591D02*
Y106831D01*
X28270Y106331D01*
G01Y104331D02*
X28911D01*
G01X30284Y106414D02*
X30444Y106664D01*
X30631Y106789D01*
X30844Y106831D01*
X31111Y106747D01*
X31297Y106539D01*
X31350Y106289D01*
X31324Y106039D01*
X31217Y105831D01*
X30684Y105414D01*
X30444Y105122D01*
X30284Y104706D01*
X30231Y104331D01*
X31350D01*
G01X18517Y147638D02*
X18303Y147680D01*
X18117Y147846D01*
X17957Y148096D01*
X17850Y148388D01*
X17796Y148721D01*
Y149054D01*
X17850Y149388D01*
X17957Y149680D01*
X18117Y149930D01*
X18303Y150096D01*
X18517Y150138D01*
X18730Y150096D01*
X18917Y149930D01*
X19076Y149680D01*
X19183Y149388D01*
X19237Y149054D01*
Y148721D01*
X19183Y148388D01*
X19076Y148096D01*
X18917Y147846D01*
X18730Y147680D01*
X18517Y147638D01*
G01X18730Y148304D02*
X19050Y147638D01*
G01X20717D02*
Y150138D01*
X20396Y149638D01*
G01Y147638D02*
X21037D01*
G01X22917D02*
Y150138D01*
X22596Y149638D01*
G01Y147638D02*
X23237D01*
G01X46921Y7292D02*
X46796Y7132D01*
X46713Y6946D01*
Y6732D01*
X46838Y6492D01*
X47046Y6306D01*
X47296Y6172D01*
X47713Y6065D01*
X48088Y6039D01*
X48463Y6092D01*
X48713Y6172D01*
X48963Y6332D01*
X49129Y6519D01*
X49213Y6706D01*
Y6892D01*
X49129Y7079D01*
X49004Y7239D01*
X48838Y7372D01*
G01X48713Y8319D02*
X49004Y8479D01*
X49171Y8692D01*
X49213Y8932D01*
X49171Y9146D01*
X48963Y9359D01*
X48713Y9492D01*
X48463Y9519D01*
X48171Y9465D01*
X47963Y9279D01*
X47879Y9092D01*
Y8852D01*
G01Y9092D02*
X47754Y9252D01*
X47546Y9385D01*
X47296Y9439D01*
X47046Y9385D01*
X46838Y9252D01*
X46713Y9012D01*
X46754Y8772D01*
X46921Y8532D01*
G01X49213Y23889D02*
X46713D01*
Y24556D01*
X46838Y24769D01*
X47004Y24902D01*
X47338Y24956D01*
X47671Y24902D01*
X47879Y24742D01*
X48004Y24556D01*
Y23889D01*
G01Y24556D02*
X49213Y24956D01*
G01Y26622D02*
X46713D01*
X47213Y26302D01*
G01X49213D02*
Y26942D01*
G01X46713Y28822D02*
X46796Y28609D01*
X47004Y28449D01*
X47254Y28342D01*
X47588Y28262D01*
X47963Y28235D01*
X48338Y28262D01*
X48671Y28342D01*
X48921Y28449D01*
X49129Y28609D01*
X49213Y28822D01*
X49129Y29035D01*
X48921Y29195D01*
X48671Y29302D01*
X48338Y29382D01*
X47963Y29409D01*
X47588Y29382D01*
X47254Y29302D01*
X47004Y29195D01*
X46796Y29035D01*
X46713Y28822D01*
G01X39370Y57300D02*
X36870D01*
Y57833D01*
X36995Y58046D01*
X37162Y58207D01*
X37412Y58340D01*
X37704Y58446D01*
X38120Y58473D01*
X38537Y58446D01*
X38828Y58340D01*
X39078Y58207D01*
X39245Y58046D01*
X39370Y57833D01*
Y57300D01*
G01Y60407D02*
X36870D01*
X38662Y59420D01*
Y60753D01*
G01X55918Y51181D02*
X55705Y51223D01*
X55518Y51389D01*
X55358Y51639D01*
X55252Y51931D01*
X55198Y52265D01*
Y52598D01*
X55252Y52931D01*
X55358Y53223D01*
X55518Y53473D01*
X55705Y53639D01*
X55918Y53681D01*
X56131Y53639D01*
X56318Y53473D01*
X56478Y53223D01*
X56585Y52931D01*
X56638Y52598D01*
Y52265D01*
X56585Y51931D01*
X56478Y51639D01*
X56318Y51389D01*
X56131Y51223D01*
X55918Y51181D01*
G01X56131Y51848D02*
X56452Y51181D01*
G01X58118D02*
Y53681D01*
X57798Y53181D01*
G01Y51181D02*
X58438D01*
G01X60318Y53681D02*
X60105Y53598D01*
X59945Y53389D01*
X59838Y53139D01*
X59758Y52806D01*
X59731Y52431D01*
X59758Y52056D01*
X59838Y51723D01*
X59945Y51473D01*
X60105Y51265D01*
X60318Y51181D01*
X60531Y51265D01*
X60691Y51473D01*
X60798Y51723D01*
X60878Y52056D01*
X60905Y52431D01*
X60878Y52806D01*
X60798Y53139D01*
X60691Y53389D01*
X60531Y53598D01*
X60318Y53681D01*
G01X49213Y67196D02*
X46713D01*
Y67863D01*
X46838Y68076D01*
X47004Y68209D01*
X47338Y68263D01*
X47671Y68209D01*
X47879Y68049D01*
X48004Y67863D01*
Y67196D01*
G01Y67863D02*
X49213Y68263D01*
G01Y69876D02*
X48671Y69929D01*
X48213Y70009D01*
X47796Y70116D01*
X47338Y70249D01*
X46713Y70463D01*
Y69396D01*
G01X49213Y77038D02*
X46713D01*
Y77705D01*
X46838Y77919D01*
X47004Y78052D01*
X47338Y78105D01*
X47671Y78052D01*
X47879Y77892D01*
X48004Y77705D01*
Y77038D01*
G01Y77705D02*
X49213Y78105D01*
G01Y79772D02*
X49171Y79958D01*
X49046Y80172D01*
X48838Y80305D01*
X48546Y80358D01*
X48254Y80305D01*
X48004Y80145D01*
X47879Y79905D01*
Y79638D01*
X47796Y79478D01*
X47588Y79345D01*
X47296Y79292D01*
X47004Y79372D01*
X46796Y79558D01*
X46713Y79772D01*
X46796Y79985D01*
X47004Y80172D01*
X47296Y80252D01*
X47588Y80198D01*
X47796Y80065D01*
X47879Y79905D01*
Y79638D01*
X48004Y79398D01*
X48254Y79238D01*
X48546Y79185D01*
X48838Y79238D01*
X49046Y79372D01*
X49171Y79585D01*
X49213Y79772D01*
G01X39370Y71080D02*
X36870D01*
Y71613D01*
X36995Y71826D01*
X37162Y71986D01*
X37412Y72120D01*
X37704Y72226D01*
X38120Y72253D01*
X38537Y72226D01*
X38828Y72120D01*
X39078Y71986D01*
X39245Y71826D01*
X39370Y71613D01*
Y71080D01*
G01X38870Y73280D02*
X39162Y73439D01*
X39328Y73653D01*
X39370Y73893D01*
X39328Y74106D01*
X39120Y74320D01*
X38870Y74453D01*
X38620Y74480D01*
X38328Y74426D01*
X38120Y74239D01*
X38037Y74053D01*
Y73813D01*
G01Y74053D02*
X37912Y74213D01*
X37704Y74346D01*
X37454Y74400D01*
X37204Y74346D01*
X36995Y74213D01*
X36870Y73973D01*
X36912Y73733D01*
X37078Y73493D01*
G01X39370Y86828D02*
X36870D01*
Y87361D01*
X36995Y87574D01*
X37162Y87734D01*
X37412Y87868D01*
X37704Y87974D01*
X38120Y88001D01*
X38537Y87974D01*
X38828Y87868D01*
X39078Y87734D01*
X39245Y87574D01*
X39370Y87361D01*
Y86828D01*
G01X37287Y89107D02*
X37037Y89267D01*
X36912Y89454D01*
X36870Y89667D01*
X36954Y89934D01*
X37162Y90121D01*
X37412Y90174D01*
X37662Y90148D01*
X37870Y90041D01*
X38287Y89507D01*
X38578Y89267D01*
X38995Y89107D01*
X39370Y89054D01*
Y90174D01*
G01X37402Y122847D02*
X37360Y122634D01*
X37193Y122447D01*
X36943Y122287D01*
X36652Y122181D01*
X36318Y122127D01*
X35985D01*
X35652Y122181D01*
X35360Y122287D01*
X35110Y122447D01*
X34943Y122634D01*
X34902Y122847D01*
X34943Y123061D01*
X35110Y123247D01*
X35360Y123407D01*
X35652Y123514D01*
X35985Y123567D01*
X36318D01*
X36652Y123514D01*
X36943Y123407D01*
X37193Y123247D01*
X37360Y123061D01*
X37402Y122847D01*
G01X36735Y123061D02*
X37402Y123381D01*
G01X37110Y124594D02*
X37318Y124781D01*
X37402Y124994D01*
X37318Y125207D01*
X37069Y125394D01*
X36693Y125527D01*
X36318Y125581D01*
X35860D01*
X35485Y125527D01*
X35152Y125394D01*
X34985Y125234D01*
X34902Y125047D01*
X34985Y124834D01*
X35152Y124674D01*
X35402Y124567D01*
X35735Y124514D01*
X36026Y124567D01*
X36318Y124700D01*
X36485Y124861D01*
X36527Y125047D01*
X36443Y125261D01*
X36235Y125420D01*
X35860Y125581D01*
G01X64961Y136093D02*
X62461D01*
Y136760D01*
X62586Y136974D01*
X62752Y137107D01*
X63086Y137160D01*
X63419Y137107D01*
X63627Y136947D01*
X63752Y136760D01*
Y136093D01*
G01Y136760D02*
X64961Y137160D01*
G01X64461Y138240D02*
X64752Y138400D01*
X64919Y138613D01*
X64961Y138854D01*
X64919Y139067D01*
X64711Y139280D01*
X64461Y139413D01*
X64211Y139440D01*
X63919Y139387D01*
X63711Y139200D01*
X63627Y139013D01*
Y138774D01*
G01Y139013D02*
X63502Y139174D01*
X63294Y139307D01*
X63044Y139360D01*
X62794Y139307D01*
X62586Y139174D01*
X62461Y138933D01*
X62502Y138693D01*
X62669Y138454D01*
G01X41339Y147851D02*
X38839D01*
Y148385D01*
X38964Y148598D01*
X39130Y148758D01*
X39380Y148891D01*
X39672Y148998D01*
X40089Y149024D01*
X40505Y148998D01*
X40797Y148891D01*
X41047Y148758D01*
X41214Y148598D01*
X41339Y148385D01*
Y147851D01*
G01Y150585D02*
X40797Y150638D01*
X40339Y150718D01*
X39922Y150824D01*
X39464Y150958D01*
X38839Y151171D01*
Y150104D01*
G01X55118Y128166D02*
X52618D01*
Y128700D01*
X52743Y128913D01*
X52910Y129073D01*
X53160Y129206D01*
X53452Y129313D01*
X53868Y129339D01*
X54285Y129313D01*
X54576Y129206D01*
X54826Y129073D01*
X54993Y128913D01*
X55118Y128700D01*
Y128166D01*
G01Y130953D02*
X52618D01*
X53118Y130633D01*
G01X55118D02*
Y131273D01*
G01X84912Y33465D02*
Y35965D01*
X85579D01*
X85793Y35839D01*
X85926Y35673D01*
X85979Y35339D01*
X85926Y35006D01*
X85766Y34798D01*
X85579Y34673D01*
X84912D01*
G01X85579D02*
X85979Y33465D01*
G01X87646D02*
Y35965D01*
X87326Y35465D01*
G01Y33465D02*
X87966D01*
G01X89846D02*
Y35965D01*
X89526Y35465D01*
G01Y33465D02*
X90166D01*
G01X82677Y23889D02*
X80177D01*
Y24556D01*
X80302Y24769D01*
X80469Y24902D01*
X80802Y24956D01*
X81135Y24902D01*
X81344Y24742D01*
X81469Y24556D01*
Y23889D01*
G01Y24556D02*
X82677Y24956D01*
G01X81635Y26115D02*
X81344Y26302D01*
X81177Y26462D01*
X81094Y26675D01*
X81177Y26862D01*
X81344Y26995D01*
X81594Y27102D01*
X81885Y27129D01*
X82135Y27102D01*
X82385Y26995D01*
X82594Y26835D01*
X82677Y26649D01*
X82594Y26435D01*
X82344Y26249D01*
X81969Y26142D01*
X81552Y26115D01*
X81011Y26169D01*
X80719Y26249D01*
X80427Y26382D01*
X80219Y26569D01*
X80177Y26756D01*
X80261Y26942D01*
X80469Y27076D01*
G01X90551Y23889D02*
X88051D01*
Y24556D01*
X88176Y24769D01*
X88343Y24902D01*
X88676Y24956D01*
X89009Y24902D01*
X89218Y24742D01*
X89343Y24556D01*
Y23889D01*
G01Y24556D02*
X90551Y24956D01*
G01X90176Y26035D02*
X90385Y26195D01*
X90509Y26382D01*
X90551Y26622D01*
X90468Y26862D01*
X90301Y27049D01*
X90009Y27182D01*
X89676Y27209D01*
X89343Y27156D01*
X89135Y27022D01*
X88968Y26835D01*
X88926Y26649D01*
X88968Y26462D01*
X89135Y26222D01*
X88051Y26302D01*
Y27022D01*
G01X90818Y45276D02*
Y47776D01*
X91458D01*
X91671Y47650D01*
X91831Y47359D01*
X91885Y47026D01*
X91831Y46692D01*
X91698Y46442D01*
X91458Y46317D01*
X90818D01*
G01X93178Y45276D02*
Y46942D01*
G01Y46609D02*
X93311Y46776D01*
X93444Y46900D01*
X93631Y46942D01*
X93765Y46900D01*
X93924Y46776D01*
G01X95351Y46400D02*
X96205D01*
X96124Y46692D01*
X95991Y46859D01*
X95804Y46942D01*
X95618Y46900D01*
X95458Y46776D01*
X95351Y46484D01*
X95298Y46234D01*
Y45984D01*
X95351Y45734D01*
X95485Y45484D01*
X95644Y45317D01*
X95831Y45276D01*
X96018Y45359D01*
X96205Y45609D01*
G01X98431Y47776D02*
Y45276D01*
G01Y45650D02*
X98324Y45442D01*
X98165Y45317D01*
X97978Y45276D01*
X97765Y45359D01*
X97604Y45567D01*
X97498Y45817D01*
X97471Y46109D01*
X97498Y46400D01*
X97604Y46651D01*
X97765Y46859D01*
X97978Y46942D01*
X98165Y46900D01*
X98298Y46817D01*
X98431Y46651D01*
G01X100631Y45276D02*
Y46942D01*
G01Y46651D02*
X100524Y46817D01*
X100365Y46900D01*
X100178Y46942D01*
X99991Y46859D01*
X99831Y46692D01*
X99724Y46442D01*
X99671Y46109D01*
X99724Y45776D01*
X99831Y45526D01*
X99991Y45359D01*
X100178Y45276D01*
X100365Y45317D01*
X100524Y45442D01*
X100631Y45609D01*
G01X103885Y45276D02*
X104551Y47776D01*
X105218Y45276D01*
G01X104978Y46150D02*
X104124D01*
G01X106298Y45276D02*
Y46942D01*
G01Y46526D02*
X106404Y46734D01*
X106565Y46900D01*
X106778Y46942D01*
X106965Y46900D01*
X107124Y46734D01*
X107205Y46442D01*
Y45276D01*
G01X109431Y47776D02*
Y45276D01*
G01Y45650D02*
X109324Y45442D01*
X109165Y45317D01*
X108978Y45276D01*
X108765Y45359D01*
X108604Y45567D01*
X108498Y45817D01*
X108471Y46109D01*
X108498Y46400D01*
X108604Y46651D01*
X108765Y46859D01*
X108978Y46942D01*
X109165Y46900D01*
X109298Y46817D01*
X109431Y46651D01*
G01X110778Y45276D02*
Y46942D01*
G01Y46609D02*
X110911Y46776D01*
X111044Y46900D01*
X111231Y46942D01*
X111365Y46900D01*
X111524Y46776D01*
G01X112951Y46400D02*
X113805D01*
X113724Y46692D01*
X113591Y46859D01*
X113404Y46942D01*
X113218Y46900D01*
X113058Y46776D01*
X112951Y46484D01*
X112898Y46234D01*
Y45984D01*
X112951Y45734D01*
X113085Y45484D01*
X113244Y45317D01*
X113431Y45276D01*
X113618Y45359D01*
X113805Y45609D01*
G01X115551Y46942D02*
Y45276D01*
G01Y47609D02*
X115498Y47650D01*
Y47734D01*
X115551Y47776D01*
X115604Y47734D01*
Y47650D01*
X115551Y47609D01*
G01X90685Y43839D02*
X91351Y41339D01*
X92018Y43839D01*
G01X93551Y41339D02*
Y43839D01*
G01X96231Y41339D02*
Y43005D01*
G01Y42714D02*
X96124Y42880D01*
X95965Y42963D01*
X95778Y43005D01*
X95591Y42922D01*
X95431Y42755D01*
X95324Y42505D01*
X95271Y42172D01*
X95324Y41839D01*
X95431Y41589D01*
X95591Y41422D01*
X95778Y41339D01*
X95965Y41380D01*
X96124Y41505D01*
X96231Y41672D01*
G01X98431Y43839D02*
Y41339D01*
G01Y41713D02*
X98324Y41505D01*
X98165Y41380D01*
X97978Y41339D01*
X97765Y41422D01*
X97604Y41630D01*
X97498Y41880D01*
X97471Y42172D01*
X97498Y42463D01*
X97604Y42714D01*
X97765Y42922D01*
X97978Y43005D01*
X98165Y42963D01*
X98298Y42880D01*
X98431Y42714D01*
G01X99698Y43005D02*
Y41839D01*
X99804Y41547D01*
X99965Y41380D01*
X100151Y41339D01*
X100338Y41380D01*
X100498Y41547D01*
X100605Y41839D01*
G01Y41339D02*
Y43005D01*
G01X102351Y43839D02*
Y41339D01*
G01X101978Y43005D02*
X102724D01*
G01X107071Y41339D02*
Y43839D01*
X106085Y42047D01*
X107418D01*
G01X108365Y41839D02*
X108524Y41547D01*
X108738Y41380D01*
X108978Y41339D01*
X109191Y41380D01*
X109405Y41589D01*
X109538Y41839D01*
X109565Y42089D01*
X109511Y42380D01*
X109324Y42589D01*
X109138Y42672D01*
X108898D01*
G01X109138D02*
X109298Y42797D01*
X109431Y43005D01*
X109485Y43255D01*
X109431Y43505D01*
X109298Y43713D01*
X109058Y43839D01*
X108818Y43797D01*
X108578Y43630D01*
G01X110644Y43422D02*
X110804Y43672D01*
X110991Y43797D01*
X111204Y43839D01*
X111471Y43755D01*
X111658Y43547D01*
X111711Y43297D01*
X111685Y43047D01*
X111578Y42839D01*
X111044Y42422D01*
X110804Y42130D01*
X110644Y41713D01*
X110591Y41339D01*
X111711D01*
G01X113885D02*
X112818D01*
Y43839D01*
X113885D01*
G01X113458Y42630D02*
X112818D01*
G01X90818Y37402D02*
Y39902D01*
X91458D01*
X91671Y39776D01*
X91831Y39485D01*
X91885Y39152D01*
X91831Y38818D01*
X91698Y38568D01*
X91458Y38443D01*
X90818D01*
G01X93178Y37402D02*
Y39068D01*
G01Y38735D02*
X93311Y38902D01*
X93444Y39026D01*
X93631Y39068D01*
X93765Y39026D01*
X93924Y38902D01*
G01X95751Y37402D02*
X95591Y37443D01*
X95431Y37610D01*
X95324Y37902D01*
X95271Y38235D01*
X95324Y38568D01*
X95431Y38860D01*
X95591Y39026D01*
X95751Y39068D01*
X95911Y39026D01*
X96071Y38860D01*
X96178Y38568D01*
X96205Y38235D01*
X96178Y37902D01*
X96071Y37610D01*
X95911Y37443D01*
X95751Y37402D01*
G01X97951Y39068D02*
Y37402D01*
G01Y39735D02*
X97898Y39776D01*
Y39860D01*
X97951Y39902D01*
X98004Y39860D01*
Y39776D01*
X97951Y39735D01*
G01X99751Y38526D02*
X100605D01*
X100524Y38818D01*
X100391Y38985D01*
X100204Y39068D01*
X100018Y39026D01*
X99858Y38902D01*
X99751Y38610D01*
X99698Y38360D01*
Y38110D01*
X99751Y37860D01*
X99885Y37610D01*
X100044Y37443D01*
X100231Y37402D01*
X100418Y37485D01*
X100605Y37735D01*
G01X102778Y38860D02*
X102591Y39026D01*
X102431Y39068D01*
X102218Y38985D01*
X102058Y38818D01*
X101951Y38526D01*
X101924Y38235D01*
X101951Y37943D01*
X102058Y37693D01*
X102218Y37485D01*
X102431Y37402D01*
X102618Y37485D01*
X102778Y37652D01*
G01X104551Y39902D02*
Y37402D01*
G01X104178Y39068D02*
X104924D01*
G01X108365Y37402D02*
Y39902D01*
X108898D01*
X109111Y39776D01*
X109271Y39610D01*
X109405Y39360D01*
X109511Y39068D01*
X109538Y38652D01*
X109511Y38235D01*
X109405Y37943D01*
X109271Y37693D01*
X109111Y37526D01*
X108898Y37402D01*
X108365D01*
G01X111738Y39693D02*
X111578Y39818D01*
X111391Y39902D01*
X111178D01*
X110938Y39776D01*
X110751Y39568D01*
X110618Y39318D01*
X110511Y38902D01*
X110485Y38526D01*
X110538Y38152D01*
X110618Y37902D01*
X110778Y37652D01*
X110965Y37485D01*
X111151Y37402D01*
X111338D01*
X111524Y37485D01*
X111685Y37610D01*
X111818Y37776D01*
G01X112685Y37402D02*
X113351Y39902D01*
X114018Y37402D01*
G01X113778Y38276D02*
X112924D01*
G01X116085Y37402D02*
X115018D01*
Y39902D01*
X116085D01*
G01X115658Y38693D02*
X115018D01*
G01X84646Y61824D02*
X84604Y61610D01*
X84437Y61424D01*
X84187Y61264D01*
X83896Y61157D01*
X83562Y61104D01*
X83229D01*
X82896Y61157D01*
X82604Y61264D01*
X82354Y61424D01*
X82187Y61610D01*
X82146Y61824D01*
X82187Y62037D01*
X82354Y62224D01*
X82604Y62383D01*
X82896Y62490D01*
X83229Y62544D01*
X83562D01*
X83896Y62490D01*
X84187Y62383D01*
X84437Y62224D01*
X84604Y62037D01*
X84646Y61824D01*
G01X83979Y62037D02*
X84646Y62357D01*
G01X84271Y63437D02*
X84479Y63597D01*
X84604Y63783D01*
X84646Y64024D01*
X84562Y64264D01*
X84396Y64450D01*
X84104Y64583D01*
X83771Y64610D01*
X83437Y64557D01*
X83229Y64424D01*
X83062Y64237D01*
X83021Y64050D01*
X83062Y63864D01*
X83229Y63624D01*
X82146Y63704D01*
Y64424D01*
G01X72835Y75070D02*
X70335D01*
Y75737D01*
X70460Y75950D01*
X70626Y76083D01*
X70960Y76137D01*
X71293Y76083D01*
X71501Y75923D01*
X71626Y75737D01*
Y75070D01*
G01Y75737D02*
X72835Y76137D01*
G01X72543Y77350D02*
X72751Y77537D01*
X72835Y77750D01*
X72751Y77963D01*
X72502Y78150D01*
X72126Y78283D01*
X71751Y78337D01*
X71293D01*
X70918Y78283D01*
X70585Y78150D01*
X70418Y77990D01*
X70335Y77803D01*
X70418Y77590D01*
X70585Y77430D01*
X70835Y77323D01*
X71168Y77270D01*
X71459Y77323D01*
X71751Y77456D01*
X71918Y77617D01*
X71960Y77803D01*
X71876Y78017D01*
X71668Y78176D01*
X71293Y78337D01*
G01X74303Y69164D02*
X74553Y69298D01*
X74720Y69457D01*
X74803Y69644D01*
X74720Y69857D01*
X74553Y70018D01*
X74303Y70178D01*
X73970Y70231D01*
X72303D01*
G01X74803Y71898D02*
X72303D01*
X72803Y71578D01*
G01X74803D02*
Y72218D01*
G01X85446Y82677D02*
X85232Y82719D01*
X85046Y82885D01*
X84886Y83135D01*
X84779Y83427D01*
X84726Y83761D01*
Y84094D01*
X84779Y84427D01*
X84886Y84719D01*
X85046Y84969D01*
X85232Y85135D01*
X85446Y85177D01*
X85659Y85135D01*
X85846Y84969D01*
X86006Y84719D01*
X86112Y84427D01*
X86166Y84094D01*
Y83761D01*
X86112Y83427D01*
X86006Y83135D01*
X85846Y82885D01*
X85659Y82719D01*
X85446Y82677D01*
G01X85659Y83344D02*
X85979Y82677D01*
G01X87059Y83177D02*
X87219Y82885D01*
X87432Y82719D01*
X87672Y82677D01*
X87886Y82719D01*
X88099Y82927D01*
X88232Y83177D01*
X88259Y83427D01*
X88206Y83719D01*
X88019Y83927D01*
X87832Y84011D01*
X87593D01*
G01X87832D02*
X87993Y84135D01*
X88126Y84344D01*
X88179Y84594D01*
X88126Y84844D01*
X87993Y85052D01*
X87752Y85177D01*
X87512Y85135D01*
X87272Y84969D01*
G01X82677Y99225D02*
X82635Y99012D01*
X82469Y98825D01*
X82219Y98665D01*
X81927Y98559D01*
X81594Y98505D01*
X81261D01*
X80927Y98559D01*
X80635Y98665D01*
X80385Y98825D01*
X80219Y99012D01*
X80177Y99225D01*
X80219Y99439D01*
X80385Y99625D01*
X80635Y99785D01*
X80927Y99892D01*
X81261Y99945D01*
X81594D01*
X81927Y99892D01*
X82219Y99785D01*
X82469Y99625D01*
X82635Y99439D01*
X82677Y99225D01*
G01X82011Y99439D02*
X82677Y99759D01*
G01X80594Y100919D02*
X80344Y101078D01*
X80219Y101265D01*
X80177Y101478D01*
X80261Y101745D01*
X80469Y101932D01*
X80719Y101985D01*
X80969Y101959D01*
X81177Y101852D01*
X81594Y101319D01*
X81885Y101078D01*
X82302Y100919D01*
X82677Y100865D01*
Y101985D01*
G01X78740Y114973D02*
X78698Y114760D01*
X78532Y114573D01*
X78282Y114413D01*
X77990Y114307D01*
X77657Y114253D01*
X77324D01*
X76990Y114307D01*
X76698Y114413D01*
X76448Y114573D01*
X76282Y114760D01*
X76240Y114973D01*
X76282Y115187D01*
X76448Y115373D01*
X76698Y115533D01*
X76990Y115640D01*
X77324Y115693D01*
X77657D01*
X77990Y115640D01*
X78282Y115533D01*
X78532Y115373D01*
X78698Y115187D01*
X78740Y114973D01*
G01X78074Y115187D02*
X78740Y115507D01*
G01X77698Y116667D02*
X77407Y116853D01*
X77240Y117013D01*
X77157Y117226D01*
X77240Y117413D01*
X77407Y117546D01*
X77657Y117653D01*
X77948Y117680D01*
X78198Y117653D01*
X78448Y117546D01*
X78657Y117387D01*
X78740Y117200D01*
X78657Y116987D01*
X78407Y116800D01*
X78032Y116693D01*
X77615Y116667D01*
X77074Y116720D01*
X76782Y116800D01*
X76490Y116933D01*
X76282Y117120D01*
X76240Y117307D01*
X76324Y117493D01*
X76532Y117627D01*
G01X86614Y147904D02*
X84114D01*
Y148571D01*
X84239Y148785D01*
X84406Y148918D01*
X84739Y148971D01*
X85072Y148918D01*
X85281Y148758D01*
X85406Y148571D01*
Y147904D01*
G01Y148571D02*
X86614Y148971D01*
G01X84531Y150131D02*
X84281Y150291D01*
X84156Y150478D01*
X84114Y150691D01*
X84198Y150958D01*
X84406Y151144D01*
X84656Y151198D01*
X84906Y151171D01*
X85114Y151065D01*
X85531Y150531D01*
X85822Y150291D01*
X86239Y150131D01*
X86614Y150078D01*
Y151198D01*
G01X70866Y130721D02*
X70824Y130508D01*
X70658Y130321D01*
X70408Y130161D01*
X70116Y130055D01*
X69783Y130001D01*
X69450D01*
X69116Y130055D01*
X68824Y130161D01*
X68574Y130321D01*
X68408Y130508D01*
X68366Y130721D01*
X68408Y130935D01*
X68574Y131121D01*
X68824Y131281D01*
X69116Y131388D01*
X69450Y131441D01*
X69783D01*
X70116Y131388D01*
X70408Y131281D01*
X70658Y131121D01*
X70824Y130935D01*
X70866Y130721D01*
G01X70200Y130935D02*
X70866Y131255D01*
G01Y132921D02*
X70824Y133108D01*
X70700Y133321D01*
X70491Y133455D01*
X70200Y133508D01*
X69908Y133455D01*
X69658Y133294D01*
X69533Y133055D01*
Y132788D01*
X69450Y132628D01*
X69241Y132494D01*
X68950Y132441D01*
X68658Y132521D01*
X68450Y132708D01*
X68366Y132921D01*
X68450Y133135D01*
X68658Y133321D01*
X68950Y133401D01*
X69241Y133348D01*
X69450Y133215D01*
X69533Y133055D01*
Y132788D01*
X69658Y132548D01*
X69908Y132388D01*
X70200Y132335D01*
X70491Y132388D01*
X70700Y132521D01*
X70824Y132735D01*
X70866Y132921D01*
G01X112205Y6172D02*
X109705D01*
Y6839D01*
X109830Y7052D01*
X109996Y7185D01*
X110330Y7239D01*
X110663Y7185D01*
X110871Y7026D01*
X110996Y6839D01*
Y6172D01*
G01Y6839D02*
X112205Y7239D01*
G01X110121Y8399D02*
X109871Y8559D01*
X109746Y8746D01*
X109705Y8959D01*
X109788Y9226D01*
X109996Y9412D01*
X110246Y9465D01*
X110496Y9439D01*
X110705Y9332D01*
X111121Y8799D01*
X111413Y8559D01*
X111830Y8399D01*
X112205Y8346D01*
Y9465D01*
G01X109705Y11106D02*
X109788Y10892D01*
X109996Y10732D01*
X110246Y10626D01*
X110580Y10546D01*
X110955Y10519D01*
X111330Y10546D01*
X111663Y10626D01*
X111913Y10732D01*
X112121Y10892D01*
X112205Y11106D01*
X112121Y11319D01*
X111913Y11479D01*
X111663Y11585D01*
X111330Y11665D01*
X110955Y11692D01*
X110580Y11665D01*
X110246Y11585D01*
X109996Y11479D01*
X109788Y11319D01*
X109705Y11106D01*
G01X100394Y23889D02*
X97894D01*
Y24556D01*
X98019Y24769D01*
X98185Y24902D01*
X98519Y24956D01*
X98852Y24902D01*
X99060Y24742D01*
X99185Y24556D01*
Y23889D01*
G01Y24556D02*
X100394Y24956D01*
G01Y26942D02*
X97894D01*
X99685Y25956D01*
Y27289D01*
G01X123484Y6039D02*
X125984Y6706D01*
X123484Y7372D01*
G01X125984Y8319D02*
X123484D01*
Y8852D01*
X123609Y9065D01*
X123776Y9226D01*
X124026Y9359D01*
X124318Y9465D01*
X124734Y9492D01*
X125151Y9465D01*
X125443Y9359D01*
X125693Y9226D01*
X125859Y9065D01*
X125984Y8852D01*
Y8319D01*
G01Y10519D02*
X123484D01*
Y11052D01*
X123609Y11265D01*
X123776Y11426D01*
X124026Y11559D01*
X124318Y11665D01*
X124734Y11692D01*
X125151Y11665D01*
X125443Y11559D01*
X125693Y11426D01*
X125859Y11265D01*
X125984Y11052D01*
Y10519D01*
G01X118110Y47511D02*
X115610D01*
Y48178D01*
X115735Y48391D01*
X115902Y48524D01*
X116235Y48578D01*
X116569Y48524D01*
X116777Y48364D01*
X116902Y48178D01*
Y47511D01*
G01Y48178D02*
X118110Y48578D01*
G01Y50244D02*
X115610D01*
X116110Y49924D01*
G01X118110D02*
Y50564D01*
G01Y52444D02*
X118069Y52631D01*
X117944Y52844D01*
X117735Y52978D01*
X117444Y53031D01*
X117152Y52978D01*
X116902Y52817D01*
X116777Y52578D01*
Y52311D01*
X116694Y52151D01*
X116485Y52017D01*
X116194Y51964D01*
X115902Y52044D01*
X115694Y52231D01*
X115610Y52444D01*
X115694Y52657D01*
X115902Y52844D01*
X116194Y52924D01*
X116485Y52871D01*
X116694Y52737D01*
X116777Y52578D01*
Y52311D01*
X116902Y52071D01*
X117152Y51911D01*
X117444Y51857D01*
X117735Y51911D01*
X117944Y52044D01*
X118069Y52257D01*
X118110Y52444D01*
G01X114173Y55918D02*
X114131Y55705D01*
X113965Y55518D01*
X113715Y55358D01*
X113423Y55252D01*
X113090Y55198D01*
X112757D01*
X112423Y55252D01*
X112131Y55358D01*
X111881Y55518D01*
X111715Y55705D01*
X111673Y55918D01*
X111715Y56131D01*
X111881Y56318D01*
X112131Y56478D01*
X112423Y56585D01*
X112757Y56638D01*
X113090D01*
X113423Y56585D01*
X113715Y56478D01*
X113965Y56318D01*
X114131Y56131D01*
X114173Y55918D01*
G01X113507Y56131D02*
X114173Y56452D01*
G01Y58438D02*
X111673D01*
X113465Y57452D01*
Y58785D01*
G01X110503Y90551D02*
Y93051D01*
X111170D01*
X111383Y92926D01*
X111516Y92759D01*
X111570Y92426D01*
X111516Y92093D01*
X111356Y91885D01*
X111170Y91759D01*
X110503D01*
G01X111170D02*
X111570Y90551D01*
G01X113236D02*
Y93051D01*
X112916Y92551D01*
G01Y90551D02*
X113556D01*
G01X115383D02*
X115436Y91093D01*
X115516Y91551D01*
X115623Y91968D01*
X115756Y92426D01*
X115970Y93051D01*
X114903D01*
G01X110503Y76772D02*
Y79272D01*
X111170D01*
X111383Y79146D01*
X111516Y78980D01*
X111570Y78646D01*
X111516Y78313D01*
X111356Y78105D01*
X111170Y77980D01*
X110503D01*
G01X111170D02*
X111570Y76772D01*
G01X113236D02*
Y79272D01*
X112916Y78772D01*
G01Y76772D02*
X113556D01*
G01X115383D02*
X115436Y77313D01*
X115516Y77772D01*
X115623Y78188D01*
X115756Y78646D01*
X115970Y79272D01*
X114903D01*
G01X123693Y104772D02*
X123568Y104613D01*
X123484Y104426D01*
Y104213D01*
X123609Y103972D01*
X123818Y103786D01*
X124068Y103652D01*
X124484Y103546D01*
X124859Y103519D01*
X125234Y103572D01*
X125484Y103652D01*
X125734Y103813D01*
X125901Y103999D01*
X125984Y104186D01*
Y104372D01*
X125901Y104559D01*
X125776Y104719D01*
X125609Y104852D01*
G01X125984Y106706D02*
X123484D01*
X125276Y105719D01*
Y107052D01*
G01X108268Y103162D02*
X108226Y102949D01*
X108059Y102762D01*
X107809Y102602D01*
X107518Y102496D01*
X107184Y102442D01*
X106851D01*
X106518Y102496D01*
X106226Y102602D01*
X105976Y102762D01*
X105809Y102949D01*
X105768Y103162D01*
X105809Y103376D01*
X105976Y103562D01*
X106226Y103722D01*
X106518Y103829D01*
X106851Y103882D01*
X107184D01*
X107518Y103829D01*
X107809Y103722D01*
X108059Y103562D01*
X108226Y103376D01*
X108268Y103162D01*
G01X107601Y103376D02*
X108268Y103696D01*
G01Y105362D02*
X105768D01*
X106268Y105042D01*
G01X108268D02*
Y105682D01*
G01X112205Y137117D02*
X109705D01*
Y137784D01*
X109830Y137997D01*
X109996Y138130D01*
X110330Y138184D01*
X110663Y138130D01*
X110871Y137970D01*
X110996Y137784D01*
Y137117D01*
G01Y137784D02*
X112205Y138184D01*
G01X110121Y139344D02*
X109871Y139504D01*
X109746Y139691D01*
X109705Y139904D01*
X109788Y140170D01*
X109996Y140357D01*
X110246Y140410D01*
X110496Y140384D01*
X110705Y140277D01*
X111121Y139744D01*
X111413Y139504D01*
X111830Y139344D01*
X112205Y139291D01*
Y140410D01*
G01Y142050D02*
X109705D01*
X110205Y141730D01*
G01X112205D02*
Y142370D01*
G01X108268Y147904D02*
X105768D01*
Y148571D01*
X105893Y148785D01*
X106059Y148918D01*
X106393Y148971D01*
X106726Y148918D01*
X106934Y148758D01*
X107059Y148571D01*
Y147904D01*
G01Y148571D02*
X108268Y148971D01*
G01Y150638D02*
X105768D01*
X106268Y150318D01*
G01X108268D02*
Y150958D01*
G01Y130721D02*
X108226Y130508D01*
X108059Y130321D01*
X107809Y130161D01*
X107518Y130055D01*
X107184Y130001D01*
X106851D01*
X106518Y130055D01*
X106226Y130161D01*
X105976Y130321D01*
X105809Y130508D01*
X105768Y130721D01*
X105809Y130935D01*
X105976Y131121D01*
X106226Y131281D01*
X106518Y131388D01*
X106851Y131441D01*
X107184D01*
X107518Y131388D01*
X107809Y131281D01*
X108059Y131121D01*
X108226Y130935D01*
X108268Y130721D01*
G01X107601Y130935D02*
X108268Y131255D01*
G01Y132868D02*
X107726Y132921D01*
X107268Y133001D01*
X106851Y133108D01*
X106393Y133241D01*
X105768Y133455D01*
Y132388D01*
G01X131890Y29741D02*
X129390D01*
Y30274D01*
X129515Y30487D01*
X129681Y30648D01*
X129931Y30781D01*
X130223Y30887D01*
X130640Y30914D01*
X131056Y30887D01*
X131348Y30781D01*
X131598Y30648D01*
X131765Y30487D01*
X131890Y30274D01*
Y29741D01*
G01X130848Y32021D02*
X130556Y32207D01*
X130390Y32368D01*
X130306Y32581D01*
X130390Y32768D01*
X130556Y32901D01*
X130806Y33007D01*
X131098Y33034D01*
X131348Y33007D01*
X131598Y32901D01*
X131806Y32741D01*
X131890Y32554D01*
X131806Y32341D01*
X131557Y32154D01*
X131181Y32048D01*
X130765Y32021D01*
X130223Y32074D01*
X129931Y32154D01*
X129640Y32287D01*
X129431Y32474D01*
X129390Y32661D01*
X129473Y32848D01*
X129681Y32981D01*
G01X145936Y64961D02*
Y67461D01*
X146603D01*
X146816Y67335D01*
X146949Y67169D01*
X147003Y66835D01*
X146949Y66502D01*
X146789Y66294D01*
X146603Y66169D01*
X145936D01*
G01X146603D02*
X147003Y64961D01*
G01X148669D02*
Y67461D01*
X148349Y66961D01*
G01Y64961D02*
X148989D01*
G01X150416Y65252D02*
X150603Y65044D01*
X150816Y64961D01*
X151029Y65044D01*
X151216Y65294D01*
X151349Y65669D01*
X151403Y66044D01*
Y66502D01*
X151349Y66877D01*
X151216Y67211D01*
X151056Y67377D01*
X150869Y67461D01*
X150656Y67377D01*
X150496Y67211D01*
X150389Y66961D01*
X150336Y66627D01*
X150389Y66336D01*
X150522Y66044D01*
X150683Y65877D01*
X150869Y65835D01*
X151083Y65919D01*
X151243Y66127D01*
X151403Y66502D01*
G01X131567Y38788D02*
X131442Y38628D01*
X131358Y38442D01*
Y38228D01*
X131483Y37988D01*
X131692Y37802D01*
X131942Y37668D01*
X132358Y37561D01*
X132733Y37535D01*
X133108Y37588D01*
X133358Y37668D01*
X133608Y37828D01*
X133775Y38015D01*
X133858Y38202D01*
Y38388D01*
X133775Y38575D01*
X133650Y38735D01*
X133483Y38868D01*
G01X132817Y39895D02*
X132525Y40081D01*
X132358Y40242D01*
X132275Y40455D01*
X132358Y40642D01*
X132525Y40775D01*
X132775Y40881D01*
X133067Y40908D01*
X133317Y40881D01*
X133567Y40775D01*
X133775Y40615D01*
X133858Y40428D01*
X133775Y40215D01*
X133525Y40028D01*
X133150Y39922D01*
X132733Y39895D01*
X132192Y39948D01*
X131900Y40028D01*
X131608Y40161D01*
X131400Y40348D01*
X131358Y40535D01*
X131442Y40722D01*
X131650Y40855D01*
G01X131567Y48631D02*
X131442Y48471D01*
X131358Y48284D01*
Y48071D01*
X131483Y47831D01*
X131692Y47644D01*
X131942Y47511D01*
X132358Y47404D01*
X132733Y47378D01*
X133108Y47431D01*
X133358Y47511D01*
X133608Y47671D01*
X133775Y47857D01*
X133858Y48044D01*
Y48231D01*
X133775Y48417D01*
X133650Y48578D01*
X133483Y48711D01*
G01Y49657D02*
X133692Y49817D01*
X133817Y50004D01*
X133858Y50244D01*
X133775Y50484D01*
X133608Y50671D01*
X133317Y50804D01*
X132983Y50831D01*
X132650Y50778D01*
X132442Y50644D01*
X132275Y50457D01*
X132233Y50271D01*
X132275Y50084D01*
X132442Y49844D01*
X131358Y49924D01*
Y50644D01*
G01X143967Y94488D02*
Y96988D01*
X144634D01*
X144848Y96863D01*
X144981Y96696D01*
X145034Y96363D01*
X144981Y96030D01*
X144821Y95822D01*
X144634Y95696D01*
X143967D01*
G01X144634D02*
X145034Y94488D01*
G01X146701D02*
Y96988D01*
X146381Y96488D01*
G01Y94488D02*
X147021D01*
G01X148394Y95530D02*
X148581Y95822D01*
X148741Y95988D01*
X148954Y96072D01*
X149141Y95988D01*
X149274Y95822D01*
X149381Y95572D01*
X149407Y95280D01*
X149381Y95030D01*
X149274Y94780D01*
X149114Y94572D01*
X148928Y94488D01*
X148714Y94572D01*
X148528Y94821D01*
X148421Y95196D01*
X148394Y95613D01*
X148447Y96155D01*
X148528Y96446D01*
X148661Y96738D01*
X148848Y96946D01*
X149034Y96988D01*
X149221Y96905D01*
X149354Y96696D01*
G01X147315Y105717D02*
X147190Y105557D01*
X147106Y105371D01*
Y105157D01*
X147231Y104917D01*
X147440Y104731D01*
X147690Y104597D01*
X148106Y104491D01*
X148481Y104464D01*
X148856Y104517D01*
X149106Y104597D01*
X149356Y104757D01*
X149523Y104944D01*
X149606Y105131D01*
Y105317D01*
X149523Y105504D01*
X149398Y105664D01*
X149231Y105797D01*
G01X149606Y107278D02*
X149065Y107331D01*
X148606Y107411D01*
X148190Y107517D01*
X147731Y107651D01*
X147106Y107864D01*
Y106797D01*
G01X131890Y122261D02*
X129390D01*
Y122794D01*
X129515Y123007D01*
X129681Y123167D01*
X129931Y123301D01*
X130223Y123407D01*
X130640Y123434D01*
X131056Y123407D01*
X131348Y123301D01*
X131598Y123167D01*
X131765Y123007D01*
X131890Y122794D01*
Y122261D01*
G01X131515Y124461D02*
X131723Y124620D01*
X131848Y124807D01*
X131890Y125047D01*
X131806Y125287D01*
X131640Y125474D01*
X131348Y125607D01*
X131015Y125634D01*
X130681Y125581D01*
X130473Y125447D01*
X130306Y125261D01*
X130265Y125074D01*
X130306Y124887D01*
X130473Y124647D01*
X129390Y124727D01*
Y125447D01*
G01X126118Y130453D02*
X126784Y127953D01*
X127451Y130453D01*
G01X129571Y130244D02*
X129411Y130369D01*
X129224Y130453D01*
X129011D01*
X128771Y130328D01*
X128584Y130119D01*
X128451Y129869D01*
X128344Y129453D01*
X128318Y129078D01*
X128371Y128703D01*
X128451Y128453D01*
X128611Y128203D01*
X128798Y128036D01*
X128984Y127953D01*
X129171D01*
X129357Y128036D01*
X129518Y128161D01*
X129651Y128328D01*
G01X131771Y130244D02*
X131611Y130369D01*
X131424Y130453D01*
X131211D01*
X130971Y130328D01*
X130784Y130119D01*
X130651Y129869D01*
X130544Y129453D01*
X130518Y129078D01*
X130571Y128703D01*
X130651Y128453D01*
X130811Y128203D01*
X130998Y128036D01*
X131184Y127953D01*
X131371D01*
X131557Y128036D01*
X131718Y128161D01*
X131851Y128328D01*
G54D11*
G01X66732Y52461D02*
X62402D01*
Y32776D01*
X63583D01*
G01X73228D02*
X71260D01*
G01X77756Y52461D02*
X82087D01*
Y32776D01*
X80906D01*
G01X76772Y42618D02*
X67913D01*
G01X72244Y47146D02*
Y38091D01*
G01X78150Y42618D02*
G03X72244Y48524I-5906J0D01*
G03X66339Y42421I0J-5909D01*
G03X72244Y36713I5899J193D01*
G03X78150Y42618I0J5906D01*
G01X123327Y88189D02*
Y90157D01*
G01X143012Y83661D02*
Y79331D01*
X123327D01*
Y80512D01*
G01X143012Y94685D02*
Y99016D01*
X123327D01*
Y97835D01*
G01X134547Y70866D02*
Y62008D01*
G01Y72244D02*
G03X128642Y66339I0J-5906D01*
G03X134744Y60433I5909J0D01*
G03X140453Y66339I-193J5899D01*
G03X134547Y72244I-5906J0D01*
G01X124705Y60827D02*
Y56496D01*
X144390D01*
Y57677D01*
G01X130020Y66339D02*
X139075D01*
G01X144390Y67323D02*
Y65354D01*
G01X124705Y71850D02*
Y76181D01*
X144390D01*
Y75000D01*
G01X133169Y84646D02*
Y93504D01*
G01X137697Y89173D02*
X128642D01*
G01X133169Y83268D02*
G03X139075Y89173I0J5906D01*
G03X132972Y95079I-5909J0D01*
G03X127264Y89173I193J-5899D01*
G03X133169Y83268I5906J0D01*
G54D12*
G01X11093Y146639D02*
X7968D01*
Y143514D01*
G01X15468Y141014D02*
X12343D01*
G01X16717Y146639D02*
X19843D01*
Y143514D01*
G01X48494Y50182D02*
X45369D01*
Y47057D01*
G01X52869Y44557D02*
X49744D01*
G01X54119Y50182D02*
X57244D01*
Y47057D01*
G01X38401Y115423D02*
Y112298D01*
X41526D01*
G01X44026Y119798D02*
Y116673D01*
G01X38401Y121048D02*
Y124173D01*
X41526D01*
G01X66211Y63272D02*
Y66398D01*
G01X71835Y62023D02*
Y58898D01*
X68711D01*
G01X90831Y61742D02*
X93957D01*
G01X89582Y56117D02*
X86457D01*
Y59242D01*
G01X71835Y67648D02*
Y70772D01*
X68711D01*
G01X85645Y91801D02*
Y88676D01*
X88770D01*
G01X91270Y96176D02*
Y93051D01*
G01X89833Y81678D02*
X86708D01*
Y78553D01*
G01X94208Y76053D02*
X91083D01*
G01X85645Y97426D02*
Y100551D01*
X88770D01*
G01X79739Y107549D02*
Y104424D01*
X82864D01*
G01X85364Y111924D02*
Y108799D01*
G01X79739Y113174D02*
Y116299D01*
X82864D01*
G01X93519Y125266D02*
Y122141D01*
X96644D01*
G01X71865Y123297D02*
Y120172D01*
X74990D01*
G01X93519Y130891D02*
Y134016D01*
X96644D01*
G01X77490Y127672D02*
Y124547D01*
G01X71865Y128922D02*
Y132047D01*
X74990D01*
G01X105581Y61304D02*
Y64429D01*
G01X111206Y60054D02*
Y56929D01*
X108081D01*
G01X95207Y56117D02*
X98331D01*
Y59242D01*
G01X95457Y81678D02*
X98583D01*
Y78553D01*
G01X111206Y65679D02*
Y68804D01*
X108081D01*
G01X105300Y112923D02*
Y116048D01*
X102175D01*
G01X99675Y108548D02*
Y111673D01*
G01X105300Y107298D02*
Y104173D01*
X102175D01*
G01X99144Y129641D02*
Y126516D01*
G54D13*
G01X35246Y6043D02*
X27746D01*
G01D02*
Y22043D01*
G01D02*
X35246D01*
G01X29139Y31309D02*
X45139D01*
G01Y23809D02*
X29139D01*
G01D02*
Y31309D01*
G01X7485Y58868D02*
X23485D01*
G01D02*
Y51368D01*
G01D02*
X7485D01*
G01D02*
Y58868D01*
G01X13593Y78106D02*
Y62106D01*
G01D02*
X6093D01*
G01D02*
Y78106D01*
G01X26346Y47255D02*
Y63055D01*
G01D02*
X30646D01*
G01D02*
X31496Y63905D01*
G01D02*
X32346Y63055D01*
G01D02*
X36646D01*
G01Y47255D02*
X26346D01*
G01X6093Y78106D02*
X13593D01*
G01Y97791D02*
Y81791D01*
G01D02*
X6093D01*
G01D02*
Y97791D01*
G01X34678Y68835D02*
X30378D01*
G01D02*
X29528Y67985D01*
G01D02*
X28678Y68835D01*
G01D02*
X24378D01*
G01D02*
Y84635D01*
G01D02*
X34678D01*
G01Y86551D02*
X30378D01*
G01D02*
X29528Y85701D01*
G01D02*
X28678Y86551D01*
G01D02*
X24378D01*
G01D02*
Y102351D01*
G01X13593Y128342D02*
Y112342D01*
G01D02*
X6093D01*
G01D02*
Y128342D01*
G01Y97791D02*
X13593D01*
G01X22043Y101526D02*
X6043D01*
G01D02*
Y109026D01*
G01D02*
X22043D01*
G01D02*
Y101526D01*
G01X24378Y102351D02*
X34678D01*
G01X6093Y128342D02*
X13593D01*
G01X36646Y135764D02*
X32346D01*
G01D02*
X31496Y134914D01*
G01D02*
X30646Y135764D01*
G01D02*
X26346D01*
G01D02*
Y151564D01*
G01D02*
X36646D01*
G01X45089Y22043D02*
Y6043D01*
G01D02*
X37589D01*
G01D02*
Y22043D01*
G01D02*
X45089D01*
G01X35246D02*
Y6043D01*
G01X45139Y31309D02*
Y23809D01*
G01X58868Y71255D02*
Y55255D01*
G01D02*
X51368D01*
G01D02*
Y71255D01*
G01X36646Y63055D02*
Y47255D01*
G01X68711Y74940D02*
X61211D01*
G01D02*
Y90940D01*
G01D02*
X68711D01*
G01X51368Y71255D02*
X58868D01*
G01Y90940D02*
Y74940D01*
G01D02*
X51368D01*
G01D02*
Y90940D01*
G01D02*
X58868D01*
G01X34678Y84635D02*
Y68835D01*
G01Y102351D02*
Y86551D01*
G01X60837Y151964D02*
Y135964D01*
G01D02*
X53337D01*
G01D02*
Y151964D01*
G01D02*
X60837D01*
G01X36646Y151564D02*
Y135764D01*
G01X50426Y143690D02*
Y127890D01*
G01D02*
X46126D01*
G01D02*
X45276Y127040D01*
G01D02*
X44426Y127890D01*
G01D02*
X40126D01*
G01D02*
Y143690D01*
G01D02*
X50426D01*
G01X80522Y22043D02*
Y6043D01*
G01D02*
X73022D01*
G01D02*
Y22043D01*
G01D02*
X80522D01*
G01X90364D02*
Y6043D01*
G01D02*
X82864D01*
G01D02*
Y22043D01*
G01D02*
X90364D01*
G01X100207Y6043D02*
X92707D01*
G01D02*
Y22043D01*
G01D02*
X100207D01*
G01X68711Y90940D02*
Y74940D01*
G01X82490Y151964D02*
Y135964D01*
G01D02*
X74990D01*
G01D02*
Y151964D01*
G01D02*
X82490D01*
G01X114360Y5517D02*
Y21517D01*
G01D02*
X121860D01*
G01D02*
Y5517D01*
G01D02*
X114360D01*
G01X100207Y22043D02*
Y6043D01*
G01X120266Y37013D02*
Y53013D01*
G01D02*
X127766D01*
G01Y37013D02*
X120266D01*
G01X116531Y80896D02*
X100531D01*
G01D02*
Y88396D01*
G01D02*
X116531D01*
G01D02*
Y80896D01*
G01X121860Y151964D02*
Y135964D01*
G01D02*
X114360D01*
G01D02*
Y151964D01*
G01D02*
X121860D01*
G01X104144D02*
Y135964D01*
G01D02*
X96644D01*
G01D02*
Y151964D01*
G01D02*
X104144D01*
G01X151564Y24378D02*
X135764D01*
G01D02*
Y28678D01*
G01D02*
X134914Y29528D01*
G01D02*
X135764Y30378D01*
G01D02*
Y34678D01*
G01X151564D02*
Y24378D01*
G01X135438Y43120D02*
X151438D01*
G01D02*
Y35620D01*
G01D02*
X135438D01*
G01D02*
Y43120D01*
G01Y52963D02*
X151438D01*
G01D02*
Y45463D01*
G01D02*
X135438D01*
G01D02*
Y52963D01*
G01X127766Y53013D02*
Y37013D01*
G01X135764Y34678D02*
X151564D01*
G01X145482Y118499D02*
Y102499D01*
G01D02*
X137982D01*
G01D02*
Y118499D01*
G01D02*
X145482D01*
G01X135640D02*
Y102499D01*
G01D02*
X128140D01*
G01D02*
Y118499D01*
G01D02*
X135640D01*
G01X149669Y125134D02*
Y120834D01*
G01D02*
X133869D01*
G01D02*
Y131134D01*
G01D02*
X149669D01*
G01D02*
Y126834D01*
G01D02*
X150519Y125984D01*
G01D02*
X149669Y125134D01*
M02*
