G04 ================== begin FILE IDENTIFICATION RECORD ==================*
G04 Layout Name:  MIZILOSCbrd15.brd*
G04 Film Name:    TOP*
G04 File Format:  Gerber RS274X*
G04 File Origin:  Cadence Allegro 17.2-S025*
G04 Origin Date:  Sat Dec 09 16:35:55 2023*
G04 *
G04 Layer:  ETCH/TOP*
G04 Layer:  PIN/TOP*
G04 Layer:  VIA CLASS/TOP*
G04 *
G04 Offset:    (0.0000 0.0000)*
G04 Mirror:    No*
G04 Mode:      Positive*
G04 Rotation:  0*
G04 FullContactRelief:  No*
G04 UndefLineWidth:     0.0000*
G04 ================== end FILE IDENTIFICATION RECORD ====================*
%FSLAX25Y25*MOIN*%
%IR0*IPPOS*OFA0.00000B0.00000*MIA0B0*SFA1.00000B1.00000*%
%ADD14C,.028*%
%ADD15R,.036X.05*%
%ADD13R,.05X.036*%
%ADD11R,.11811X.07874*%
%ADD21R,.07874X.11811*%
%ADD17R,.07874X.051181*%
%ADD19R,.051181X.07874*%
%ADD18C,.03937*%
%ADD16R,.051181X.051181*%
%ADD10R,.05X.05*%
%ADD20R,.048X.076*%
%ADD12R,.076X.048*%
%ADD22C,.015748*%
G75*
%LPD*%
G75*
G54D10*
X31496Y9843D03*
Y18243D03*
X32939Y27559D03*
X19685Y55118D03*
X11285D03*
X9843Y65906D03*
Y74306D03*
Y85591D03*
Y93991D03*
Y116142D03*
Y124542D03*
Y105276D03*
X18243D03*
X41339Y9843D03*
Y18243D03*
Y27559D03*
X55118Y59055D03*
Y67455D03*
X64961Y78740D03*
Y87140D03*
X55118Y78740D03*
Y87140D03*
X57087Y139764D03*
Y148164D03*
X76772Y9843D03*
Y18243D03*
X86614Y9843D03*
Y18243D03*
X96457Y9843D03*
Y18243D03*
X78740Y139764D03*
Y148164D03*
X118110Y17717D03*
Y9317D03*
X124016Y49213D03*
Y40813D03*
X104331Y84646D03*
X112731D03*
X118110Y139764D03*
Y148164D03*
X100394Y139764D03*
Y148164D03*
X147638Y39370D03*
X139238D03*
X147638Y49213D03*
X139238D03*
X141732Y106299D03*
Y114699D03*
X131890Y106299D03*
Y114699D03*
G54D20*
X139764Y29528D03*
X147664D03*
X145669Y125984D03*
X137769D03*
G54D11*
X15748Y11217D03*
Y24217D03*
G54D12*
X31496Y59055D03*
Y51155D03*
X29528Y72835D03*
Y80735D03*
Y90551D03*
Y98451D03*
X31496Y139764D03*
Y147664D03*
X45276Y131890D03*
Y139790D03*
G54D21*
X146264Y13780D03*
X133264D03*
X146264Y141732D03*
X133264D03*
G54D22*
G01X31496Y51155D02*
Y32789D01*
X32939Y31346D01*
Y27559D01*
G01X41339Y9843D02*
X31496D01*
G01X15748Y11217D02*
X22941D01*
X24315Y9843D01*
X31496D01*
G01X15748Y24217D02*
Y29441D01*
X11285Y33904D01*
Y55118D01*
G01X19685D02*
Y49213D01*
X23622Y45276D01*
Y21654D01*
X27033Y18243D01*
X31496D01*
G01X9843Y65906D02*
Y61024D01*
X11285Y59581D01*
Y55118D01*
G01X55118Y59055D02*
X31496D01*
G01D02*
X24016D01*
X18243Y64828D01*
Y105276D01*
G01X9843D02*
Y93991D01*
G01Y85591D02*
Y74306D01*
G01X29528Y72835D02*
X34615D01*
X41339Y66111D01*
Y62992D01*
G01X29528Y90551D02*
Y80735D01*
G01X45276Y114173D02*
X34191D01*
X32223Y116142D01*
X9843D01*
G01X18243Y105276D02*
Y109539D01*
X18043D01*
Y112205D01*
G01X29528Y98451D02*
Y110236D01*
G01X37176Y118273D02*
Y122667D01*
X35301Y124542D01*
X31496D01*
G01D02*
X29528Y122573D01*
Y120079D01*
G01X9843Y139764D02*
Y124542D01*
G01D02*
X31496D01*
G01X45276Y139790D02*
X40188D01*
Y139764D01*
X31496D01*
G01X57087Y148164D02*
X36583D01*
Y147664D01*
X31496D01*
G01X13943Y147864D02*
X17030D01*
Y147664D01*
X31496D01*
G01X18043Y139764D02*
Y127953D01*
G01X41339Y18243D02*
Y27559D01*
G01D02*
Y35433D01*
G01Y9843D02*
X45276D01*
X47244Y11811D01*
X66929D01*
G01X51344Y51407D02*
Y40323D01*
X52828Y38839D01*
X55512D01*
X57087Y37264D01*
Y21654D01*
G01X76772Y9843D02*
X72835D01*
X70866Y7874D01*
X57087D01*
G01X76772Y18243D02*
X72984D01*
X70490Y15748D01*
X54724D01*
X47244Y23228D01*
Y43307D01*
G01X64961Y60698D02*
Y46063D01*
X67717Y43307D01*
Y31496D01*
G01X55444Y43307D02*
Y51507D01*
X55118D01*
Y59055D01*
G01X47244Y43307D02*
X42913D01*
X41339Y44882D01*
Y55118D01*
G01X55118Y78740D02*
Y67455D01*
G01Y87140D02*
X64961D01*
G01X53150Y114173D02*
X45276D01*
G01X70640Y126147D02*
X66535D01*
X64961Y124572D01*
Y114173D01*
X72835Y106299D01*
X86614D01*
G01X57087Y139764D02*
Y102362D01*
X61024Y98425D01*
X74606D01*
X78740Y94291D01*
Y76772D01*
X80709Y74803D01*
X88583D01*
G01X45276Y131890D02*
Y122373D01*
G01X57087Y148164D02*
X78740D01*
G01X76772Y25591D02*
Y31496D01*
G01X67717D02*
Y27650D01*
X66929Y26862D01*
Y21654D01*
G01X88257Y62992D02*
Y59080D01*
X86614Y57438D01*
Y18243D01*
G01Y9843D02*
X96457D01*
G01X86614D02*
X76772D01*
G01X73061Y64798D02*
Y57587D01*
X72244D01*
Y53740D01*
G01X92357Y54892D02*
Y58680D01*
X92520Y58843D01*
Y66929D01*
X88583Y70866D01*
Y74803D01*
G01X64961Y78740D02*
Y68898D01*
G01X92683Y82903D02*
X95770D01*
X98425Y85558D01*
Y96633D01*
X96307Y98751D01*
G01X86614Y106299D02*
Y103212D01*
X84420Y101017D01*
Y94651D01*
G01X92520Y90551D02*
X86088D01*
X82677Y87140D01*
G01X64961D02*
X72835D01*
G01X70866Y114173D02*
X74640Y110399D01*
X78514D01*
G01D02*
X102738D01*
Y110073D01*
X106525D01*
G01X96307Y98751D02*
X92520D01*
G01X100394Y124016D02*
Y120928D01*
X98689Y119224D01*
X95343D01*
X90551Y124016D01*
G01X86614Y114499D02*
Y120079D01*
X84646Y122047D01*
G01D02*
X78740D01*
G01X84646D02*
X86614Y124016D01*
X90551D01*
G01X92294Y128116D02*
X90551Y126373D01*
Y124016D01*
G01X78740Y130247D02*
Y139764D01*
G01X100394Y148164D02*
X78740D01*
G01X139764Y29528D02*
X127953D01*
X124016Y25591D01*
Y19685D01*
X122047Y17717D01*
X118110D01*
G01X104331Y58729D02*
Y55118D01*
X96457Y47244D01*
Y18243D01*
G01X133264Y13780D02*
X126361D01*
X121898Y9317D01*
X118110D01*
G01X96457Y9843D02*
X113797D01*
X114323Y9317D01*
X118110D01*
G01X124016Y49213D02*
Y53150D01*
X123425D01*
Y64961D01*
G01X139238Y39370D02*
X135450D01*
Y40813D01*
X124016D01*
G01D02*
X119685D01*
X118110Y42387D01*
Y71260D01*
X114567Y74803D01*
X106299D01*
X104331Y76772D01*
Y84646D01*
G01X96783Y70690D02*
X96457Y70364D01*
Y62992D01*
G01D02*
X102199D01*
X102362Y62829D01*
X112431D01*
G01X129831Y93701D02*
X122047D01*
G01X145669Y61811D02*
X137008D01*
X133858Y64961D01*
X123425D01*
G01D02*
Y66339D01*
G01X112731Y84646D02*
X122047D01*
G01X98425Y114173D02*
X109509D01*
X110994Y112689D01*
Y97214D01*
X104331Y90551D01*
Y84646D01*
G01X96783Y74803D02*
Y70690D01*
G01X104331Y66929D02*
X100543D01*
X96783Y70690D01*
G01X98425Y105973D02*
Y100869D01*
X96307Y98751D01*
G01X131890Y114699D02*
X125458D01*
X120079Y120079D01*
G01X137769Y125984D02*
X125984D01*
X118110Y133858D01*
Y139764D01*
G01X100394Y132216D02*
Y139764D01*
G01X118110Y148164D02*
X100394D01*
G01X133264Y141732D02*
X128039D01*
X125984Y143787D01*
Y144077D01*
X121898Y148164D01*
X118110D01*
G01X147638Y39370D02*
Y35583D01*
X147664D01*
Y29528D01*
G01D02*
Y15180D01*
X146264Y13780D01*
G01D02*
X141039D01*
X139764Y15055D01*
Y19906D01*
X138017Y21654D01*
X135827D01*
X131890Y25591D01*
G01X139238Y39370D02*
Y49213D01*
G01X147638Y39370D02*
Y49213D01*
G01D02*
Y55877D01*
X150197Y58436D01*
Y69291D01*
X148622Y70866D01*
X145669D01*
G01X144291Y89173D02*
X134358D01*
X129831Y93701D01*
G01X131890Y106299D02*
Y95760D01*
X129831Y93701D01*
G01X145669Y70866D02*
Y74803D01*
X149606Y78740D01*
Y118110D01*
X145669Y122047D01*
Y125984D01*
G01X141732Y106299D02*
X131890D01*
G01X141732Y114699D02*
X131890D01*
G01X146264Y141732D02*
Y131890D01*
X145669D01*
Y125984D01*
G54D13*
X37176Y118273D03*
X64961Y60698D03*
Y68898D03*
X45276Y114173D03*
Y122373D03*
X73061Y64798D03*
X84420Y94651D03*
X92520Y90551D03*
Y98751D03*
X78514Y110399D03*
X86614Y106299D03*
Y114499D03*
X70640Y126147D03*
X78740Y122047D03*
X92294Y128116D03*
X78740Y130247D03*
X112431Y62829D03*
X104331Y66929D03*
Y58729D03*
X106525Y110073D03*
X98425Y114173D03*
Y105973D03*
X100394Y124016D03*
Y132216D03*
G54D14*
X18043Y112205D03*
X29528Y120079D03*
Y110236D03*
X18043Y127953D03*
X41339Y35433D03*
X57087Y7874D03*
Y21654D03*
X41339Y62992D03*
Y55118D03*
X53150Y114173D03*
X76772Y25591D03*
X66929Y21654D03*
Y11811D03*
X72835Y87140D03*
X82677D03*
X70866Y114173D03*
X120079Y120079D03*
X131890Y25591D03*
G54D15*
X13943Y147864D03*
X9843Y139764D03*
X18043D03*
X51344Y51407D03*
X47244Y43307D03*
X55444D03*
X92357Y54892D03*
X96457Y62992D03*
X88257D03*
X92683Y82903D03*
X88583Y74803D03*
X96783D03*
G54D16*
X67717Y31496D03*
X76772D03*
X122047Y93701D03*
Y84646D03*
X145669Y61811D03*
Y70866D03*
G54D17*
X72244Y53740D03*
G54D18*
X90551Y137795D03*
X108268Y19685D03*
G54D19*
X123425Y66339D03*
X144291Y89173D03*
M02*
